<?xml version="1.0" encoding="UTF-8" standalone="no"?>
<!-- Created with Inkscape (http://www.inkscape.org/) -->

<svg
   width="1920mm"
   height="1080mm"
   viewBox="0 0 1920 1080"
   version="1.1"
   id="svg1"
   sodipodi:docname="car_not_complete.svg"
   inkscape:version="1.4.2 (f4327f4, 2025-05-13)"
   xmlns:inkscape="http://www.inkscape.org/namespaces/inkscape"
   xmlns:sodipodi="http://sodipodi.sourceforge.net/DTD/sodipodi-0.dtd"
   xmlns="http://www.w3.org/2000/svg"
   xmlns:svg="http://www.w3.org/2000/svg">
  <sodipodi:namedview
     id="namedview1"
     pagecolor="#643200"
     bordercolor="#000000"
     borderopacity="0.25"
     inkscape:showpageshadow="2"
     inkscape:pageopacity="0.0"
     inkscape:pagecheckerboard="0"
     inkscape:deskcolor="#d1d1d1"
     inkscape:document-units="mm"
     inkscape:lockguides="true"
     inkscape:zoom="0.125"
     inkscape:cx="4084"
     inkscape:cy="3856"
     inkscape:window-width="1188"
     inkscape:window-height="1020"
     inkscape:window-x="710"
     inkscape:window-y="12"
     inkscape:window-maximized="0"
     inkscape:current-layer="layer1"
     showguides="false" />
  <defs
     id="defs1">
    <inkscape:path-effect
       effect="fillet_chamfer"
       id="path-effect276"
       is_visible="true"
       lpeversion="1"
       nodesatellites_param="F,0,0,1,0,0,0,1 @ F,0,0,1,0,74.929141,0,1 @ F,0,0,1,0,0,0,1 @ F,0,0,1,0,0,0,1 @ F,0,0,1,0,0,0,1 @ F,0,0,1,0,0,0,1 @ F,0,0,1,0,0,0,1"
       radius="0"
       unit="px"
       method="auto"
       mode="F"
       chamfer_steps="1"
       flexible="false"
       use_knot_distance="true"
       apply_no_radius="true"
       apply_with_radius="true"
       only_selected="false"
       hide_knots="false" />
    <inkscape:path-effect
       effect="fillet_chamfer"
       id="path-effect275"
       is_visible="true"
       lpeversion="1"
       nodesatellites_param="F,0,0,1,0,0,0,1 @ F,0,0,1,0,0,0,1 @ F,0,0,1,0,0,0,1 @ F,0,0,1,0,11.869827,0,1"
       radius="0"
       unit="px"
       method="auto"
       mode="F"
       chamfer_steps="1"
       flexible="false"
       use_knot_distance="true"
       apply_no_radius="true"
       apply_with_radius="true"
       only_selected="false"
       hide_knots="false" />
    <inkscape:path-effect
       effect="fillet_chamfer"
       id="path-effect274"
       is_visible="true"
       lpeversion="1"
       nodesatellites_param="F,0,0,1,0,0,0,1 @ F,0,0,1,0,0,0,1 @ F,0,0,1,0,0,0,1 @ F,0,0,1,0,0,0,1 @ F,0,0,1,0,0,0,1 @ F,0,0,1,0,0,0,1"
       radius="0"
       unit="px"
       method="auto"
       mode="F"
       chamfer_steps="1"
       flexible="false"
       use_knot_distance="true"
       apply_no_radius="true"
       apply_with_radius="true"
       only_selected="false"
       hide_knots="false" />
    <inkscape:path-effect
       effect="fillet_chamfer"
       id="path-effect273"
       is_visible="true"
       lpeversion="1"
       nodesatellites_param="F,0,0,1,0,0,0,1 @ F,0,0,1,0,51.948666,0,1 @ F,0,0,1,0,0,0,1 @ F,0,0,1,0,0,0,1 @ F,0,0,1,0,0,0,1 @ F,0,0,1,0,0,0,1"
       radius="0"
       unit="px"
       method="auto"
       mode="F"
       chamfer_steps="1"
       flexible="false"
       use_knot_distance="true"
       apply_no_radius="true"
       apply_with_radius="true"
       only_selected="false"
       hide_knots="false" />
    <inkscape:path-effect
       effect="fillet_chamfer"
       id="path-effect272"
       is_visible="true"
       lpeversion="1"
       nodesatellites_param="F,0,0,1,0,0,0,1 @ F,0,0,1,0,0,0,1 @ F,0,0,1,0,10.49494,0,1 @ F,0,0,1,0,0,0,1"
       radius="0"
       unit="px"
       method="auto"
       mode="F"
       chamfer_steps="1"
       flexible="false"
       use_knot_distance="true"
       apply_no_radius="true"
       apply_with_radius="true"
       only_selected="false"
       hide_knots="false" />
    <inkscape:perspective
       sodipodi:type="inkscape:persp3d"
       inkscape:vp_x="0 : 540 : 1"
       inkscape:vp_y="0 : 1000 : 0"
       inkscape:vp_z="1920 : 540 : 1"
       inkscape:persp3d-origin="960 : 360 : 1"
       id="perspective96" />
  </defs>
  <g
     inkscape:label="Layer 1"
     inkscape:groupmode="layer"
     id="layer1">
    <path
       style="fill:#64ff00;fill-opacity:1;stroke-width:100"
       d="M 604.22228,528.15114 656.38536,441.21268 960,443.38613 1036.7411,540 l 4.3469,127.25267 -447.73303,-4.34694 z"
       id="path178"
       inkscape:original-d="M 604.22228,528.15114 656.38536,441.21268 960,443.38613 1036.7411,540 l 4.3469,127.25267 -447.73303,-4.34694 z"
       inkscape:path-effect="#path-effect274" />
    <path
       style="fill:#64ff00;fill-opacity:1;stroke-width:100"
       d="m 1031.9786,540.79375 h 80.9404 a 173.52569,173.52569 23.354896 0 1 126.3076,54.54017 l 68.4973,72.7125 H 1036.3255 397.89727 l -3.07375,-113.01999 204.63626,-26.08154"
       id="path179"
       inkscape:original-d="m 1031.9786,540.79375 h 155.8695 l 119.8758,127.25267 H 1036.3255 397.89727 l -3.07375,-113.01999 204.63626,-26.08154"
       inkscape:path-effect="#path-effect276" />
    <ellipse
       style="fill:#000000;fill-opacity:1;stroke-width:102.73"
       id="path180"
       cx="587.54376"
       cy="669.42609"
       rx="72.2789"
       ry="71.724182" />
    <ellipse
       style="fill:#000000;fill-opacity:1;stroke-width:102.73"
       id="ellipse180"
       cx="1053.2152"
       cy="667.25269"
       rx="72.2789"
       ry="71.724182" />
    <path
       style="fill:#64ff00;fill-opacity:1;stroke-width:100"
       d="m 399.58602,554.23268 v -26.08154 l 210.48543,-9.74863 -5.84917,9.74863 z"
       id="path181" />
    <path
       style="fill:#64ff00;fill-opacity:1;stroke-width:100"
       id="path182"
       d="m 596.2733,526.59671 c -5.56556,2.16805 -11.52824,3.11788 -17.37394,4.19338 -2.4329,0.4476 -4.86897,0.87799 -7.30346,1.31699 -12.17429,2.07227 -24.22069,4.8028 -36.33432,7.1863 -5.55017,1.07534 -11.14333,1.92426 -16.77176,2.45676 -0.48654,0.0367 -0.97306,0.0734 -1.4596,0.11017 0,0 2.99548,2.1336 2.99548,2.1336 v 0 c 0.46702,-0.0532 0.93403,-0.10639 1.40108,-0.15957 5.47092,-0.71057 10.91086,-1.64481 16.30076,-2.82575 11.89969,-2.63038 23.72019,-5.66539 35.76987,-7.56894 2.47949,-0.40724 4.95689,-0.82756 7.4385,-1.22174 0.25688,-0.0408 11.12054,-1.69097 12.16033,-1.87962 2.1613,-0.39209 4.27082,-1.01997 6.40604,-1.52448 z" />
    <path
       style="fill:#64ff00;fill-opacity:1;stroke-width:100"
       id="path183"
       d="m 463.91388,547.15962 c 10.74859,3.48226 21.30107,7.54356 31.85363,11.57238 9.72632,3.74171 19.40796,7.59983 29.17069,11.24661 2.58759,0.96658 7.79031,2.85922 10.51734,3.85392 4.99404,1.82235 9.97844,3.66813 14.95576,5.53501 0,0 -2.89891,-2.26563 -2.89891,-2.26563 v 0 c -4.76432,-1.69677 -9.53574,-3.37127 -14.31348,-5.03058 -3.39606,-1.19276 -6.83289,-2.39027 -10.21315,-3.621 -9.67087,-3.52105 -19.24789,-7.2916 -28.84887,-10.99683 -11.0798,-4.26598 -22.15748,-8.53958 -33.28972,-12.66714 z" />
    <path
       style="fill:#64ff00;fill-opacity:1;stroke-width:100"
       id="path184"
       d="m 603.30976,525.69109 c -2.07158,0.16299 -4.14713,0.12473 -6.22157,0.0576 -0.99907,-0.0504 -2.31428,-0.1062 -3.32459,-0.19561 -0.35529,-0.0314 -0.708,-0.0877 -1.0627,-0.12522 -0.11295,-0.0119 -0.43323,-0.0879 -0.33994,-0.023 3.7289,2.58987 2.39268,2.26496 5.03431,2.52298 2.94235,0.28382 5.87682,0.63479 8.80747,1.01923 0,0 -2.54264,-1.8964 -2.54264,-1.8964 v 0 c -3.02625,-0.36407 -6.05753,-0.70818 -9.06307,-1.22129 -0.49032,-0.0981 -1.70465,-0.73636 -1.47095,-0.29429 0.5053,0.95572 1.60679,1.44801 2.44311,2.13307 0.0262,0.0217 0.0298,-0.0772 0.0637,-0.0797 0.30316,-0.0225 0.60804,8e-5 0.91194,0.008 1.0565,0.0259 2.19101,0.0833 3.24188,0.13076 2.24073,0.11483 4.48241,0.19224 6.7237,0.28982 z" />
    <path
       style="fill:#64ff00;fill-opacity:1;stroke-width:100"
       id="path185"
       d="m 583.19796,523.21634 c 0.31314,-0.0172 0.62582,-0.0483 0.93943,-0.0518 1.64965,-0.0188 2.80832,0.0636 4.52549,0.17031 1.21994,0.0758 2.43951,0.15809 3.65858,0.24723 4.25148,0.31086 4.81343,0.37904 9.16572,0.76684 8.26349,0.75695 16.49362,1.84314 24.70071,3.06062 2.46544,0.42357 4.95972,0.71321 7.39092,1.31614 0.51665,0.16034 0.2708,0.082 0.73784,0.23395 0,0 -3.06993,-2.36855 -3.06993,-2.36855 v 0 c -0.44643,-0.11888 -0.21035,-0.06 -0.7089,-0.1742 -2.24271,-0.3972 -4.52855,-0.50335 -6.78217,-0.82212 -3.19455,-0.33739 -6.39196,-0.64473 -9.58509,-0.996 -4.82904,-0.53123 -9.65287,-1.11114 -14.48792,-1.58742 -3.86384,-0.39452 -5.64771,-0.56864 -9.46777,-0.98935 -2.99844,-0.33026 -5.99482,-0.7479 -9.00308,-0.98505 -0.39111,-0.0308 -0.78359,-0.041 -1.17539,-0.0615 z" />
    <path
       style="fill:#64ff00;fill-opacity:1;stroke-width:100"
       id="path186"
       d="m 619.9996,523.5087 c -0.27734,0.11317 -0.54816,0.24379 -0.83201,0.33944 -2.65237,0.89397 -5.43827,1.3707 -8.17885,1.89423 -3.2112,0.61344 -5.70741,1.05616 -8.93797,1.64023 -7.61312,1.38909 -15.24408,2.6761 -22.88985,3.87175 -2.96111,0.48652 -5.9364,0.90123 -8.93553,1.04511 -0.21505,0.006 -0.43008,0.0116 -0.64513,0.0177 0,0 3.06689,2.19953 3.06689,2.19953 v 0 c 0.20039,-0.0196 0.40079,-0.0394 0.60118,-0.0591 2.82075,-0.34332 5.61536,-0.86749 8.39182,-1.46934 3.10676,-0.65167 6.21337,-1.30617 9.33302,-1.89407 1.38162,-0.26038 2.76759,-0.49705 4.14993,-0.75351 13.06722,-2.42435 -4.97488,0.87834 8.81301,-1.63756 4.86799,-0.82536 4.34927,-0.76896 9.18379,-1.46531 1.62841,-0.23456 5.24886,-0.71017 7.02847,-0.98513 1.60243,-0.24754 1.7666,-0.29464 3.08711,-0.5698 z" />
    <path
       style="fill:#64ff00;fill-opacity:1;stroke-width:100"
       id="path187"
       d="m 602.78446,527.0918 c 2.02112,-0.77991 4.02688,-1.60356 6.10073,-2.23854 0.83868,-0.25677 1.6894,-0.47249 2.5341,-0.70874 2.44796,-0.57446 2.30259,-0.56382 4.6427,-1.02891 0.4957,-0.0985 0.9996,-0.15819 1.49027,-0.27937 0.1216,-0.03 0.44997,-0.12285 0.33446,-0.17127 -5.39142,-2.25962 -3.63982,-1.98739 -8.36325,-1.14829 -8.97956,1.38851 -17.90027,3.12251 -26.83195,4.78462 3.33309,0.58791 -3.0802,0.0807 -2.41763,0.57833 1.19854,0.90016 2.47664,1.75805 3.8912,2.25382 0.58989,0.20678 1.23931,-0.16475 1.86008,-0.23804 3.44448,-0.40656 3.39844,-0.37415 7.20627,-0.72252 4.92379,-0.39849 9.86472,-0.60262 14.80468,-0.61606 1.23097,-0.003 2.46523,-0.0442 3.6926,0.0499 0.71242,0.0546 2.54916,0.9557 2.10688,0.39455 -0.6708,-0.85112 -1.94728,-0.9516 -2.92092,-1.4274 -0.3869,0.0764 -0.77319,0.15578 -1.16065,0.22928 -0.8808,0.16709 -1.75657,0.3656 -2.64406,0.49247 -2.29023,0.3274 -5.00068,0.52716 -7.30239,0.64643 -1.13914,0.059 -2.27931,0.12174 -3.41995,0.11827 -0.87919,-0.003 -1.75604,-0.0911 -2.63406,-0.13674 -0.50414,-0.14052 -1.96297,-0.68781 -1.51239,-0.42156 0.97018,0.57328 1.97954,1.20605 3.09621,1.35742 0.45926,0.0623 0.743,-0.5597 1.14977,-0.78184 0.79489,-0.43405 1.61616,-0.82034 2.44653,-1.18195 2.63183,-1.14609 4.26545,-1.662 7.00211,-2.62461 2.93318,-0.96454 5.89511,-1.83714 8.85489,-2.7151 0.50372,-0.14941 1.00997,-0.29044 1.51162,-0.44667 0.19368,-0.0603 0.73848,-0.0844 0.5738,-0.20286 -1.18607,-0.85336 -2.55129,-1.42512 -3.82696,-2.1377 -0.5711,0.13126 -1.13977,0.27355 -1.71331,0.39375 -1.8416,0.386 -4.1417,0.80412 -5.96823,1.10924 -1.83044,0.30575 -4.66706,0.74266 -6.54217,0.97039 -0.82449,0.10014 -1.65279,0.16624 -2.47919,0.24937 -0.56309,0.0127 -1.12681,0.0675 -1.68924,0.0379 -0.29278,-0.0154 -0.57504,-0.11475 -0.86259,-0.17212 1.09201,0.59397 2.10807,1.35634 3.27607,1.78192 0.23961,0.0873 0.45021,-0.24175 0.68633,-0.33816 1.76186,-0.71941 1.793,-0.64442 3.82357,-1.16536 2.29976,-0.45791 4.63092,-0.82087 6.97892,-0.89405 0.54268,-0.0169 1.08865,-0.0307 1.62859,0.0262 0.35494,0.0374 1.34064,0.44699 1.03991,0.25479 -0.92527,-0.59142 -1.96437,-0.98232 -2.94655,-1.47346 -0.12539,0.14025 -0.23114,0.30096 -0.37619,0.42082 -1.78035,1.47124 -3.98298,2.39871 -6.09632,3.2644 -2.87395,1.17729 -4.632,1.73027 -7.63592,2.76556 -8.31512,2.70994 -16.929,4.32572 -25.59233,5.4171 -1.54167,0.19421 -3.08822,0.34761 -4.63232,0.52142 -3.53886,0.41426 -7.09872,0.61584 -10.63943,1.0102 -1.99977,0.22273 -3.97706,0.53743 -5.95159,0.91771 1.26923,0.0908 -1.87608,0.18659 -1.46669,0.50186 1.17419,0.90435 2.41366,1.76956 3.7833,2.33577 0.51446,0.21267 1.11332,-0.0354 1.66804,-0.0822 1.04183,-0.0878 2.08005,-0.21419 3.1201,-0.32129 1.25627,-0.10554 2.51254,-0.21111 3.76881,-0.31665 1.69677,-0.11057 4.51016,-0.36701 6.31192,-0.24437 0.45797,0.0312 1.73019,0.5406 1.34652,0.28863 -1.1352,-0.74551 -2.32418,-1.52476 -3.65334,-1.80361 -0.75594,-0.15856 -1.49056,0.40989 -2.24703,0.56584 -1.30564,0.26913 -2.62395,0.47249 -3.93594,0.70874 -8.59935,1.39353 -17.29407,2.10182 -25.98658,2.58794 -3.3705,0.18849 -8.06752,0.36071 -11.51607,0.49612 -1.61869,0.0527 -5.31781,0.21479 -7.14822,0.14208 -0.58068,-0.023 -2.14077,-0.60899 -1.73241,-0.19547 2.45155,2.48258 2.60633,1.72043 4.75374,1.05756 1.26481,-0.39041 2.54169,-0.74051 3.81251,-1.1108 6.46012,-1.65502 13.03999,-2.7795 19.63539,-3.73163 3.31738,-0.47889 8.61912,-1.14715 12.07294,-1.476 1.38242,-0.13163 2.76966,-0.20643 4.15449,-0.30964 0.9067,-0.003 1.81417,-0.0429 2.7201,-0.006 1.18152,0.0483 5.51775,1.13678 -1.84192,-1.6147 -0.25959,-0.097 -0.51737,0.19888 -0.77711,0.29546 -2.24049,0.83312 -1.33795,0.50914 -3.93031,1.33307 -4.64619,1.40301 -9.35709,2.62001 -14.13285,3.49454 -0.14203,0.0153 -0.54985,-0.0249 -0.42608,0.0463 1.33209,0.76756 2.63615,1.66521 4.11649,2.08018 0.70138,0.19659 1.4397,-0.22331 2.16162,-0.32038 1.09551,-0.14732 2.19263,-0.2829 3.29036,-0.41275 3.61399,-0.42749 4.20534,-0.4685 7.81563,-0.82527 1.52942,-0.13551 4.25455,-0.42425 5.90563,-0.41748 0.4785,0.003 1.78721,0.45172 1.4292,0.13425 -0.90463,-0.80219 -2.04499,-1.35208 -3.20122,-1.70556 -0.38888,-0.1189 -0.76911,0.26649 -1.16191,0.37166 -0.84392,0.22593 -1.69749,0.41407 -2.54622,0.62114 -3.84792,0.74308 -7.757,1.07765 -11.66683,1.26127 -2.01941,0.0948 -4.61042,0.16552 -6.66827,0.0689 -0.74678,-0.0351 -1.48902,-0.13594 -2.23353,-0.20391 0.80769,0.41235 1.5522,0.98414 2.42308,1.23708 0.25836,0.0751 0.49305,-0.21561 0.74192,-0.31784 0.71114,-0.2921 1.40777,-0.62463 2.13799,-0.86503 1.65261,-0.54412 4.56835,-1.23862 6.26724,-1.52601 0.78269,-0.1324 1.57797,-0.17463 2.36696,-0.26194 2.90698,0.82016 -2.82482,-1.47902 -4.37351,-1.68209 -1.44825,-0.18992 -2.88708,0.45093 -4.33816,0.6177 -2.17284,0.24969 -4.35068,0.45842 -6.53098,0.63132 -6.69377,0.53086 -8.91304,0.54959 -15.60906,0.80941 -6.19557,0.219 -12.39499,0.29782 -18.59399,0.31936 -2.83266,0.01 -5.66349,0.007 -8.49487,-0.0756 -0.22813,-0.0132 -0.85688,-0.18928 -0.6844,-0.0394 1.03439,0.89857 2.14098,1.74326 3.36179,2.36532 0.35018,0.17843 0.78497,-0.0455 1.17793,-0.0521 0.79214,-0.0132 1.58448,-0.0135 2.3767,-0.007 3.53523,0.0267 4.64875,0.0812 8.39176,0.18884 4.40137,0.15541 6.0832,0.20036 10.46864,0.41243 1.51617,0.0733 3.03342,0.13335 4.54729,0.24487 1.49354,0.11001 4.2223,0.30361 5.79884,0.8609 0.41574,0.14695 0.74967,0.46445 1.12448,0.69665 -0.99806,-0.43106 -1.92839,-1.07868 -2.99421,-1.29318 -0.25649,-0.0516 -0.31888,0.42151 -0.52279,0.58545 -0.33152,0.26651 -0.69554,0.49368 -1.07016,0.69516 -1.54323,0.83003 -3.24474,1.26897 -4.91744,1.74567 -1.20629,0.30501 -1.8006,0.46842 -2.98045,0.72094 -1.79033,0.38314 -2.91637,0.15023 2.49124,2.46464 0.45534,0.19487 0.97398,-0.18439 1.46563,-0.24445 0.96202,-0.11755 1.92878,-0.19206 2.89319,-0.2881 7.78857,-0.59023 15.61118,-0.79502 23.41793,-0.49818 1.10638,0.0421 2.21141,0.11427 3.31713,0.17142 0.77052,0.1097 2.35643,1.10609 2.31159,0.32909 -0.0507,-0.87829 -1.52723,-0.89858 -2.36072,-1.1801 -0.12388,-0.0418 -0.15767,0.21162 -0.25786,0.29562 -0.49216,0.41267 -1.05881,0.7733 -1.65767,1.00978 -0.19648,0.0776 -0.41251,0.0913 -0.61876,0.13693 1.2133,0.61073 2.30894,1.56093 3.63993,1.83224 0.58023,0.11826 1.05283,-0.54722 1.60417,-0.7633 1.03066,-0.40394 2.07669,-0.77129 3.13552,-1.09429 3.64691,-1.11249 6.90168,-1.86566 10.68409,-2.5794 2.24348,-0.42333 4.50464,-0.74697 6.75693,-1.12045 6.50449,-0.82482 7.00317,-0.95936 13.40464,-1.49987 1.85618,-0.15672 3.7162,-0.26379 5.57432,-0.39572 0,0 -1.65145,-1.17678 -1.65145,-1.17678 v 0 c -6.18548,0.71027 -12.37412,1.39668 -18.54661,2.21474 -2.31838,0.32938 -4.64023,0.63535 -6.95515,0.98812 -4.1388,0.63068 -7.46805,1.20414 -11.52014,2.02427 -1.20891,0.24469 -2.4133,0.51221 -3.61435,0.79301 -0.6895,0.16121 -2.20567,-0.15938 -2.05636,0.53279 0.25106,1.16398 1.78705,1.57417 2.68057,2.36125 0.48786,-0.25908 0.99168,-0.48906 1.46838,-0.76811 0.31547,-0.18465 0.66334,-0.33801 0.91729,-0.6009 0.22063,-0.22841 0.70061,-0.61706 0.4659,-0.831 -2.57606,-2.34815 -3.07504,-2.06351 -5.70214,-2.18586 -8.92386,0.0528 -17.84524,0.30774 -26.76943,0.32515 -1.1086,-0.009 -2.21768,0.008 -3.32578,-0.0267 -0.60103,-0.0188 -2.06817,-0.67077 -1.79901,-0.13306 0.53038,1.05966 1.7758,1.60295 2.81749,2.16784 0.21471,0.11644 0.44908,-0.19381 0.68093,-0.27062 0.38611,-0.12795 2.58758,-0.75247 2.8429,-0.8255 1.036,-0.30011 2.5227,-0.71252 3.536,-1.08 0.77467,-0.28096 2.12629,-0.82394 2.82165,-1.34974 0.29911,-0.22617 0.98496,-0.51263 0.77017,-0.82003 -0.78462,-1.12307 -2.11362,-1.74368 -3.17042,-2.61551 -0.30001,-0.12827 -0.581,-0.31639 -0.90001,-0.38486 -1.36808,-0.29353 -3.97743,-0.30824 -5.16009,-0.33933 -1.44468,-0.0379 -2.89001,-0.0473 -4.33456,-0.0897 -4.84219,-0.14234 -5.64769,-0.21595 -10.55568,-0.47892 -4.05959,-0.28332 -5.207,-0.34261 -9.06481,-0.68323 -0.9134,-0.0806 -1.82753,-0.15685 -2.73797,-0.2662 -0.48008,-0.0577 -1.71148,-0.62884 -1.4315,-0.23461 1.9544,2.75204 1.85531,2.67095 3.19284,2.05534 2.49711,-0.30681 5.0062,-0.4654 7.51665,-0.62741 5.91786,-0.38187 11.84174,-0.65151 17.76569,-0.91847 8.55421,-0.39709 7.1161,-0.36603 15.87203,-0.62328 2.38625,-0.0701 4.77282,-0.13142 7.15952,-0.18463 1.69553,-0.0378 3.58939,0.70723 5.08709,-0.0885 0.64199,-0.34108 -0.4227,-3.14376 -0.84791,-2.0093 -3.17603,0.75239 -1.3063,0.32678 -5.29174,1.17276 -0.57849,0.1228 -5.05254,1.02503 -5.88323,1.36917 -0.46511,0.1927 -1.53233,0.51792 -1.20965,0.90435 0.89408,1.07066 2.43973,1.35297 3.65956,2.02943 0.67329,0.008 1.34665,0.0356 2.01986,0.0227 1.89955,-0.0357 4.48707,-0.21394 6.32703,-0.33226 4.02958,-0.25916 8.05926,-0.53885 12.07029,-1.01545 0.98044,-0.12932 1.96893,-0.20788 2.94132,-0.38798 0.59997,-0.11113 2.03822,0.062 1.76546,-0.48379 -1.29082,-2.58278 -2.47348,-2.31106 -4.22717,-2.08074 -0.75401,0.099 -1.50598,0.21289 -2.25975,0.3138 -1.06947,0.14316 -2.13995,0.27898 -3.20992,0.41846 -1.28244,0.13722 -2.56302,0.29314 -3.84734,0.41164 -2.53439,0.23384 -5.1558,0.41286 -7.70305,0.49954 -0.85069,0.029 -2.37715,-0.80167 -2.55331,0.0311 -0.20854,0.98571 1.38896,1.45992 2.08344,2.18988 0.0286,-0.0641 0.0571,-0.1283 0.0857,-0.19243 4.51004,-1.53421 9.20692,-2.47811 13.79644,-3.73629 0.80838,-0.20296 1.61618,-0.40806 2.42509,-0.60888 0.64127,-0.1592 1.29119,-0.28575 1.92537,-0.47112 0.42458,-0.12412 1.50426,-0.0967 1.24624,-0.45598 -0.74131,-1.03235 -1.99401,-1.60941 -3.13351,-2.17221 -0.99476,-0.4913 -2.44306,1.74755 -3.29714,0.45517 -5.08714,0.8223 -10.16719,1.68867 -15.25963,2.47803 -6.84334,1.06077 -13.70134,2.02637 -20.54074,3.11327 -1.48823,0.22842 -2.98479,0.40794 -4.46471,0.68525 -0.80637,0.1511 -2.58622,-0.19717 -2.38726,0.59872 0.65278,2.61126 2.84139,2.24804 4.45694,2.10781 0.89217,-0.0775 1.78331,-0.16643 2.67475,-0.25199 1.27071,-0.122 2.54114,-0.24715 3.81169,-0.37074 1.64629,-0.14308 3.29171,-0.29683 4.9389,-0.42923 10.94089,-0.87937 21.90255,-1.49228 32.835,-2.48068 1.47442,-0.12533 2.94913,-0.24717 4.42323,-0.37603 0.95168,-0.0832 2.67224,0.67768 2.85406,-0.26016 0.52911,-2.72918 -2.10558,-2.43607 -3.29229,-2.34019 -0.8201,0.0663 -1.63896,0.14706 -2.4587,0.21794 -1.16281,0.10052 -2.32592,0.19751 -3.4889,0.29628 -2.9936,0.15576 -4.51551,0.31192 -7.4681,0.17928 -0.65365,-0.0294 -2.13214,-0.85132 -1.95022,-0.2228 0.29409,1.01594 1.58316,1.41374 2.46431,1.99879 0.33411,0.22185 0.15639,-2.45745 1.05521,-0.57817 1.36268,-0.37645 1.66034,-0.48172 3.15394,-0.77954 4.12678,-0.8228 8.3321,-1.14509 12.48851,-1.77559 3.49957,-0.48578 5.94932,-0.80288 9.47174,-1.39123 3.4952,-0.58381 7.29089,-1.31228 10.75238,-2.04751 1.80684,-0.38377 3.61566,-0.76237 5.40777,-1.21002 1.56196,-0.39012 3.10059,-0.86831 4.65089,-1.30246 4.13121,-1.22515 4.18407,-1.18592 8.03177,-2.52058 1.83489,-0.63648 3.6516,-1.27288 5.40677,-2.10754 0.51397,-0.24442 1.03788,-0.4849 1.49656,-0.82179 0.29006,-0.21305 0.47932,-0.53698 0.71898,-0.80545 -1.15793,-0.74951 -2.25515,-1.60239 -3.4738,-2.24851 -0.35036,-0.18576 -2.34839,0.0119 -2.41197,0.0177 -2.31708,0.21492 -4.61486,0.60471 -6.90692,0.99618 -1.00782,0.19942 -3.21426,0.59547 -4.28352,0.94324 -0.37788,0.12287 -1.32157,0.17727 -1.08403,0.49581 2.10183,2.81839 2.87169,2.38048 5.27281,2.0121 2.90703,-0.50811 5.81128,-1.00944 8.73273,-1.43037 2.06393,-0.29736 4.31932,-0.61454 6.40691,-0.79128 0.67659,-0.0573 1.35628,-0.069 2.03443,-0.10348 -0.80811,-0.70959 -1.53392,-1.52572 -2.42437,-2.12881 -0.11123,-0.0753 -0.11457,0.26024 -0.22784,0.33252 -0.39076,0.2494 -0.8242,0.42619 -1.24957,0.61042 -2.72648,1.18087 -5.57197,2.06677 -8.37528,3.03843 -2.4439,0.80928 -4.89373,1.60067 -7.33393,2.42109 -0.94925,0.31914 -1.91569,0.59468 -2.83988,0.98036 -0.58322,0.24339 -1.9096,0.31692 -1.66817,0.90096 1.02923,2.48984 2.49399,2.42319 4.29112,2.61615 0.79869,-0.0196 1.598,-0.0214 2.39604,-0.0588 2.36296,-0.1107 4.72159,-0.30014 7.08255,-0.44754 0.5116,-0.0319 6.01273,-0.34327 6.8594,-0.48623 0.63114,-0.10657 1.22166,-0.38261 1.83248,-0.57393 -1.08297,-0.71829 -2.06042,-1.62933 -3.24895,-2.15487 -0.5003,-0.22122 -1.09424,-0.0233 -1.64103,-0.007 -1.14027,0.0329 -2.27928,0.1003 -3.41876,0.15338 -4.95565,0.23082 -9.91074,0.49054 -14.8718,0.57719 -1.77314,0.0654 -5.9031,0.23958 -7.86765,0.23894 -0.72647,-2.4e-4 -2.2301,-0.80216 -2.17798,-0.0776 0.0734,1.02137 1.46831,1.44431 2.31738,2.01668 0.10608,0.0715 0.10047,-0.23527 0.15068,-0.3529 0.48639,-0.19555 0.97277,-0.39111 1.45915,-0.58663 0.88707,-0.2508 1.76933,-0.5192 2.66118,-0.75237 2.55792,-0.66882 5.6854,-1.3837 8.23566,-1.9008 5.17544,-1.04933 10.39583,-1.89817 15.66752,-2.27867 1.32543,-0.0692 2.9564,0.6417 3.97631,-0.20762 0.61744,-0.51416 -0.90162,-1.33612 -1.25727,-2.0566 -0.0422,-0.0855 0.3624,0.0283 0.2771,0.0708 -0.39902,0.19894 -0.84019,0.30043 -1.26871,0.42357 -0.59055,0.16968 -4.07849,1.03862 -4.49429,1.14294 -2.81903,0.70329 -2.29489,0.55521 -4.98075,1.28929 -0.76806,0.20992 -2.25158,0.63371 -3.10388,0.85556 -0.76385,0.19881 -0.65627,0.1697 -1.28199,0.28014 z" />
    <path
       style="fill:#64ff00;fill-opacity:1;stroke-width:100"
       id="path188"
       d="m 515.30093,537.53181 c -0.52525,0.0241 -1.05021,0.0551 -1.57575,0.072 -2.34233,0.0756 -2.75275,0.0238 -5.20883,0.17777 -1.81432,0.11375 -4.37567,0.35296 -6.17397,0.5992 -1.00041,0.13701 -1.99366,0.32198 -2.9905,0.48297 -4.47543,0.77195 -8.79322,2.19176 -13.14363,3.45493 -2.0705,0.58063 -4.13721,1.17465 -6.20853,1.75242 -0.27667,0.0772 -1.03023,0.0227 -0.83063,0.22937 0.92845,0.96091 2.18633,1.5367 3.27951,2.30505 0.47543,-0.12835 0.94443,-0.28348 1.42629,-0.38505 2.22184,-0.46831 5.34239,-0.91943 7.46908,-1.18309 3.98124,-0.49358 7.96208,-0.85669 11.96356,-1.14421 1.99871,-0.14362 4.0005,-0.24025 6.00075,-0.36034 6.50436,-0.27398 3.33465,-0.16005 8.95763,-0.33327 0.73964,-0.0228 1.48431,0.0204 2.2189,-0.069 0.16391,-0.0198 0.5738,-0.1783 0.42624,-0.25238 -1.62748,-0.81727 -3.2821,-1.65669 -5.05523,-2.07219 -1.11628,-0.26157 -2.29241,0.0546 -3.43861,0.0819 -4.2015,0.0415 -8.40147,0.25792 -12.60348,0.26686 -0.88357,0.003 -1.76776,-0.008 -2.65012,-0.0535 -0.33851,-0.0175 -1.29669,-0.31379 -1.00766,-0.13671 1.35839,0.83236 2.84953,1.42555 4.27431,2.13834 0.98648,-0.0739 1.97216,-0.15941 2.95942,-0.22177 3.20786,-0.20265 6.41938,-0.34322 9.62803,-0.53319 4.41727,-0.26149 8.83296,-0.55581 13.24721,-0.86358 -3.0847,-1.76926 4.80346,0.66241 3.91285,-0.29554 -0.95002,-1.02187 -2.20004,-1.80768 -3.51605,-2.27121 -0.66969,-0.23587 -1.40449,0.21207 -2.11024,0.28954 -1.28458,0.14102 -2.57151,0.26138 -3.85958,0.36584 -1.74549,0.14152 -3.49364,0.24802 -5.24045,0.37203 -5.00401,0.2522 -6.14346,0.34099 -11.06778,0.46971 -2.1417,0.056 -5.43362,0.13899 -7.69469,-0.003 -0.53287,-0.0335 -1.98581,-0.57711 -1.58613,-0.22312 0.99396,0.88037 2.32931,1.27529 3.49396,1.91291 0.60949,-0.15737 1.21462,-0.33274 1.82851,-0.47212 2.33383,-0.52994 4.37835,-0.88339 6.75222,-1.31905 3.8101,-0.69922 7.61928,-1.40066 11.42542,-2.1213 -4.55978,-2.55839 4.34337,0.3166 3.3261,-0.12623 -1.35466,-0.58973 -2.6607,-1.4604 -4.13091,-1.60671 -0.86786,-0.0864 -1.61073,0.6731 -2.43673,0.95305 -2.98403,1.01135 -4.46892,1.31498 -7.54973,2.08714 -1.51709,0.96277 -3.60868,0.45577 -5.19872,1.26331 -0.1642,0.0834 -0.29908,0.45611 -0.13324,0.5362 1.63121,0.78785 3.32406,1.53088 5.1045,1.86489 1.10524,0.20736 2.24155,-0.18383 3.36224,-0.27649 1.4581,-0.12054 2.91608,-0.24204 4.37412,-0.36306 7.00524,-0.47834 14.00075,-1.08297 21.00919,-1.51561 -2.07725,-0.0781 1.79993,0.0562 1.41816,-0.23323 -1.12307,-0.85141 -2.28772,-1.66722 -3.54478,-2.30439 -0.3071,-0.15566 -0.68871,-0.004 -1.0328,-0.0159 -1.739,-0.061 -2.67896,-0.13657 -4.50104,-0.25278 -1.60102,-0.13073 -3.79629,-0.27911 -5.40649,-0.52475 -0.58505,-0.0893 -1.1793,-0.16764 -1.73787,-0.36314 -0.25558,-0.0894 -0.90387,-0.59018 -0.65854,-0.47559 3.99325,1.86548 2.24546,2.36541 4.43476,1.36237 1.17864,-0.43183 1.48455,-0.56954 2.69414,-0.91017 0.30787,-0.0867 0.62064,-0.15544 0.93298,-0.22444 0.0945,-0.0209 0.36938,0.005 0.28678,-0.0451 -3.81114,-2.32582 -2.4578,-2.45695 -4.75769,-1.81774 -0.11041,0.54768 -1.55707,0.007 -1.78122,0.59081 -0.0855,0.22291 0.10578,0.52652 0.31366,0.64394 1.39687,0.78912 2.87229,1.44452 4.37552,2.00509 0.12629,0.0471 2.65967,0.25101 2.78508,0.26157 1.54454,0.0865 3.09245,0.0858 4.639,0.11256 0.0398,-0.0298 0.0964,-0.0453 0.11943,-0.0894 0.8496,-1.62809 -2.36882,-1.7738 -3.79981,-2.23129 -0.35224,-0.1126 -0.72282,0.15664 -1.08498,0.23135 -0.99584,0.2054 -1.66825,0.33253 -2.6633,0.5252 -0.33327,0.0613 -0.66548,0.12846 -0.99978,0.18383 -1.61385,0.26734 -2.42297,-0.34911 3.01993,2.23277 0.21048,0.0998 0.44442,-0.14002 0.66823,-0.20463 0.67543,-0.19497 1.87883,-0.51342 2.49547,-0.67887 0.63823,-0.18251 1.27646,-0.36504 1.91471,-0.54755 0,0 -2.68361,-1.85121 -2.68361,-1.85121 v 0 c -0.68451,0.14753 -1.36904,0.29506 -2.05357,0.44259 -0.32141,0.0604 -2.24515,0.42725 -2.73627,0.50234 -0.25884,0.0396 -0.95498,-0.10406 -0.78028,0.091 4.6082,5.14445 1.67759,2.60953 3.15566,2.09172 0.29006,-0.10163 0.59185,-0.166 0.88776,-0.24898 0.97229,-0.1987 1.69735,-0.37052 2.69338,-0.47355 0.41391,-0.0428 1.51392,0.25506 1.24669,-0.0639 -4.86529,-5.80763 -3.25059,-0.43167 -2.60086,-2.20348 -0.35097,0.0688 -0.70718,0.0885 -1.0641,0.10599 -1.06024,0.052 -2.12378,0.0705 -3.18357,-0.005 -0.46075,-0.0411 -0.92292,-0.0685 -1.38226,-0.12322 -0.47826,-0.0569 -1.62288,-0.65251 -1.42936,-0.21145 0.33491,0.76335 1.46415,0.86421 1.99697,1.50524 0.14957,0.17992 -0.54989,0.23527 -0.69964,0.0555 -0.36335,-0.43604 2.60858,-0.48517 1.60023,-0.58195 2.17262,-0.30467 1.55712,0.0619 -1.5062,-2.39922 -0.0345,-0.0278 0.007,0.10737 -0.0315,0.12925 -0.24411,0.13856 -0.5111,0.23378 -0.77521,0.32869 -0.44492,0.15991 -0.89913,0.29266 -1.34995,0.43506 -0.47816,0.15102 -0.95795,0.2968 -1.43693,0.44521 -0.40238,0.14446 -1.39536,0.0496 -1.20711,0.43339 0.0193,0.0394 1.88892,2.52071 3.13,2.71835 0.6232,0.0993 3.75806,0.34954 3.9462,0.3665 0.96819,0.0872 1.9357,0.18196 2.90357,0.27292 1.5721,0.17373 3.36973,0.35126 4.95099,0.59642 0.41063,0.0637 1.49852,0.5487 1.22388,0.23686 -0.78732,-0.89397 -1.91963,-1.41113 -2.87946,-2.11669 0.019,0.037 0.0958,0.0944 0.0576,0.11099 -0.27289,0.11845 -0.57356,0.1583 -0.86034,0.23744 -6.67684,1.12609 -13.44179,1.64893 -20.19356,2.07896 -1.5481,0.0531 -3.09538,0.14359 -4.64431,0.15931 -1.26616,0.013 -2.69346,-0.69276 -3.79801,-0.0736 -0.5596,0.31366 0.8428,1.01026 1.03563,1.62208 0.0633,0.20077 -0.7279,-0.0559 -0.59293,-0.21743 0.34671,-0.41498 0.91773,-0.58701 1.42391,-0.77722 1.00264,-0.37677 2.05345,-0.61021 3.0802,-0.91532 5.88483,-1.44309 1.97265,-0.51568 7.92485,-1.8464 0.97684,-0.21839 2.61678,0.28617 2.92828,-0.66506 1.67306,-5.10907 -1.46217,-2.63448 -2.31611,-2.37241 -0.68681,0.21077 -1.38483,0.38304 -2.07725,0.57454 -1.12387,0.25152 -2.24404,0.52023 -3.37164,0.75457 -5.79175,1.20356 -11.65902,2.09185 -17.55362,2.59077 0.83376,0.76203 1.52982,1.70974 2.50121,2.28613 0.32002,0.18987 0.73618,-0.11207 1.10676,-0.14536 0.9398,-0.0843 1.88174,-0.14295 2.8231,-0.2074 5.07233,-0.34722 10.14923,-0.64096 15.23225,-0.77584 2.77458,-0.0461 7.10266,-0.15428 10.00262,-0.0818 0.86712,0.0217 2.54207,1.02809 2.59713,0.16246 0.259,-4.07104 -2.36281,-1.95318 -3.3613,-1.71106 -0.75308,0.18259 -1.52598,0.27056 -2.28896,0.40584 -1.1325,0.14425 -2.2629,0.30589 -3.39746,0.43278 -7.65162,0.85579 -15.37449,1.23362 -23.06376,0.69252 0.53126,0.70178 0.9397,1.51633 1.59372,2.10534 0.13541,0.12195 0.32083,-0.19089 0.50088,-0.21894 0.75449,-0.11763 1.51911,-0.15949 2.28071,-0.21466 4.19481,-0.30387 8.4047,-0.40563 12.60848,-0.24161 5.51101,0.40732 4.11499,1.37014 2.87213,-1.41584 -0.0552,-0.12372 0.48554,0.13168 0.36137,0.18579 -0.54001,0.23534 -1.13784,0.31549 -1.7199,0.40627 -2.11648,0.33009 -6.40032,0.65582 -8.27799,0.81899 -1.96217,0.14787 -3.92372,0.30456 -5.88653,0.44365 -4.31546,0.30575 -8.13205,0.53195 -12.43965,0.81148 -0.75877,0.0492 -7.02506,0.48313 -8.39957,0.52393 -0.57856,0.0172 -1.15731,-0.0278 -1.73598,-0.0417 0.96703,0.72636 1.82877,1.61972 2.9011,2.17908 0.21707,0.11321 0.43241,-0.23209 0.66038,-0.32134 0.40232,-0.1575 0.81576,-0.28532 1.22711,-0.41751 1.59856,-0.51374 3.22283,-0.94141 4.82745,-1.43507 4.23852,-1.28426 8.39886,-2.86989 12.77178,-3.6648 0.98322,-0.16449 1.9621,-0.3574 2.94966,-0.49345 4.51072,-0.62143 9.08275,-0.71956 13.61704,-0.31938 z" />
    <path
       style="fill:#64ff00;fill-opacity:1;stroke-width:100"
       id="path189"
       d="m 593.03832,540.56782 c -2.3676,0.6133 -4.68694,1.39875 -7.03757,2.07314 -0.92348,0.26493 -1.85201,0.51192 -2.778,0.76788 -6.36166,1.6474 -12.80906,2.96187 -19.30971,3.9211 -0.55629,0.0209 -1.11813,0.14361 -1.66889,0.0626 -0.31027,-0.0456 -1.13059,-0.53927 -0.83626,-0.43103 1.07949,0.39703 2.04975,1.21264 3.19669,1.29918 0.415,0.0313 0.4549,-0.70352 0.74528,-1.00166 1.04449,-1.07235 2.00303,-1.61631 3.25014,-2.45832 2.54151,-1.505 5.25693,-2.77273 8.14059,-3.46205 0.30941,-0.0739 0.62429,-0.12266 0.93644,-0.18399 0.185,0.0497 0.73047,0.22606 0.55505,0.14904 -1.14499,-0.50271 -2.2252,-1.29781 -3.46885,-1.4284 -0.42844,-0.045 -0.53425,0.68003 -0.84812,0.97509 -1.32435,1.245 -2.92164,2.16681 -4.4641,3.10457 -0.40577,0.23095 -0.81201,0.46109 -1.21732,0.69284 -0.25321,0.1448 -0.51454,0.27646 -0.75817,0.43682 -1.56924,1.03299 3.31851,2.14744 3.53714,2.22298 0.32017,0.11057 0.62775,-0.25514 0.94601,-0.371 0.40804,-0.14854 0.82162,-0.28136 1.23241,-0.42203 0.41902,-0.13838 0.83806,-0.27676 1.25711,-0.41516 0,0 -2.91433,-1.97866 -2.91433,-1.97866 v 0 c -0.41648,0.13718 -0.83296,0.2744 -1.24944,0.41161 -0.43786,0.12001 -0.87228,0.25352 -1.31361,0.3601 -0.35361,0.0854 -1.28037,-0.0813 -1.06984,0.21542 0.6704,0.94467 1.80279,1.45674 2.73984,2.13778 0.0487,0.0354 -0.0771,-0.12814 -0.0405,-0.17584 0.32062,-0.41725 1.38216,-1.08072 1.6855,-1.29066 1.0218,-0.67636 2.05383,-1.33737 3.06925,-2.02325 0.51935,-0.35081 1.04523,-0.69342 1.54379,-1.0732 0.39013,-0.29721 1.32837,-0.51181 1.119,-0.9553 -1.3816,-2.92659 -1.7495,-2.77175 -3.35756,-2.65422 -3.0816,0.93993 -5.98617,2.34338 -8.74451,4.00375 -1.11873,0.69482 -2.53841,1.51659 -3.56478,2.37292 -0.38635,0.32231 -1.29283,0.62767 -1.06061,1.07402 0.14409,0.27696 2.24811,2.91973 3.74539,2.85752 0.49935,-0.0206 0.98764,-0.15396 1.48145,-0.23095 6.35918,-1.42457 12.73575,-2.76625 19.11948,-4.07622 4.29162,-0.95769 1.52411,-0.32634 5.33318,-1.2237 0.62804,-0.14796 1.25632,-0.29485 1.88497,-0.44016 0.96698,-0.2235 1.63648,-0.40069 2.59644,-0.52443 0.24839,-0.032 0.49969,-0.035 0.74951,-0.0525 z" />
    <path
       style="fill:#64ff00;fill-opacity:1;stroke-width:100"
       id="path190"
       d="m 482.13316,539.09449 c -1.44565,0.49257 -2.84937,1.09548 -4.26106,1.67642 -1.68042,0.71004 -3.33372,1.48781 -4.89453,2.43518 1.19492,0.71276 2.29061,1.62732 3.58474,2.13825 0.31221,0.12327 0.62886,-0.235 0.94416,-0.35012 0.90176,-0.32925 1.74109,-0.62719 2.64779,-0.94641 1.44503,-0.50875 0.81156,-0.35965 1.96501,-0.55335 -1.13331,-0.65958 -2.13291,-1.64087 -3.39989,-1.97874 -0.6177,-0.16473 -1.20531,0.43389 -1.82647,0.58499 -1.13599,0.2763 -2.28518,0.49908 -3.43768,0.69543 -4.41495,0.75213 -8.87453,1.14729 -13.33146,1.54157 -1.86079,0.1315 -4.37951,0.33861 -6.30819,0.38092 -0.54251,0.0119 -1.08784,0.0254 -1.62759,-0.0304 -0.1937,-0.0199 -0.71892,-0.29277 -0.55086,-0.19442 3.86181,2.25978 2.36791,2.38233 4.86373,1.66357 4.39187,-0.94176 8.90669,-0.93067 13.37606,-0.90353 0.90636,0.0172 2.27285,0.0355 3.20739,0.08 0.36774,0.0175 0.73834,0.0169 1.10193,0.0749 0.21463,0.0341 0.80476,0.31501 0.6208,0.19931 -3.28491,-2.0659 -2.16019,-2.3536 -3.86935,-1.65061 -2.78823,0.97666 -5.7382,1.35959 -8.65616,1.73133 -0.22635,0.0132 -0.45363,0.0644 -0.67903,0.0399 -0.0669,-0.007 -0.21193,-0.16505 -0.15406,-0.13062 1.17525,0.69934 2.27319,1.54 3.50853,2.12669 0.16854,0.08 0.34327,-0.14642 0.51678,-0.21497 0.41267,-0.16307 0.83008,-0.31388 1.245,-0.47109 0,0 -3.12108,-2.09908 -3.12108,-2.09908 v 0 c -0.60542,0.22993 -0.63558,0.24977 -1.26008,0.45239 -0.20111,0.0652 -0.74514,0.0277 -0.60608,0.18695 0.8213,0.94044 1.91376,1.60409 2.87063,2.40612 0.0296,-0.0275 0.0507,-0.0688 0.0887,-0.0825 0.17571,-0.0632 0.36092,-0.0961 0.54137,-0.1442 2.9229,-0.62254 5.89465,-0.99894 8.79176,-1.74202 2.02697,-0.87159 1.46788,-0.32202 -2.23414,-2.69893 -0.14756,-0.0947 -0.3488,-0.0407 -0.52409,-0.0452 -0.38116,-0.01 -2.12116,0.0254 -2.36085,0.0294 -0.56097,0.009 -1.12197,0.0172 -1.68294,0.0259 -4.5412,0.0888 -9.08973,0.24672 -13.59873,0.83069 -2.47589,0.3829 -2.20988,-0.0542 1.09736,2.63715 0.0767,0.0624 0.18666,-0.0685 0.284,-0.0862 0.43675,-0.0794 0.87651,-0.14139 1.31588,-0.20476 0.79923,-0.11525 1.59882,-0.22844 2.39977,-0.3311 1.13369,-0.14528 2.26931,-0.27511 3.40394,-0.41267 4.4993,-0.50673 9.00108,-0.97591 13.50561,-1.43335 1.2973,-0.13176 2.59553,-0.25482 3.8917,-0.39733 0.83175,-0.0914 2.65298,0.51665 2.49174,-0.3044 -0.24045,-1.22452 -1.99541,-1.49916 -2.9931,-2.24875 -1.40369,0.65255 -2.97926,1.23757 -4.49294,1.56094 -0.36039,0.077 -1.31231,-0.14449 -1.0949,0.15306 0.69601,0.95261 1.86275,1.44838 2.79411,2.17257 0.48921,-0.45214 1.05129,-0.78422 1.63523,-1.10453 0.96803,-0.53096 1.98093,-0.96916 3.00397,-1.38178 1.48415,-0.57076 2.96855,-1.17316 4.53946,-1.46278 z" />
    <path
       style="fill:#64ff00;fill-opacity:1;stroke-width:100"
       id="path191"
       d="m 462.38715,543.05366 c -1.20364,0.40315 -2.24327,1.16091 -3.244,1.92027 -1.05857,0.80324 -1.18182,0.93265 -2.19155,1.79255 -0.83597,0.72699 -1.68529,1.44031 -2.49258,2.19966 -0.12163,0.11441 -0.48729,0.25001 -0.35566,0.35275 3.30129,2.57741 2.6139,2.98143 3.93671,1.51524 0.79095,-0.84262 1.46572,-1.78147 2.09693,-2.7468 0.20397,-0.31197 0.79007,-1.14017 0.84193,-1.6093 0.0188,-0.16984 -0.0917,-0.32919 -0.13755,-0.49382 -1.29937,-0.61801 -2.5113,-1.47066 -3.89814,-1.85404 -0.33004,-0.0912 -0.60169,0.33113 -0.87765,0.53388 -1.8221,1.33868 -3.10541,3.24262 -4.38877,5.06547 -0.85363,1.28434 -1.62775,2.62173 -2.22335,4.04627 -0.18037,0.43141 -0.45699,1.18446 -0.55475,1.67603 -0.0295,0.14814 -0.0222,0.30128 -0.0332,0.45191 1.18311,0.67953 2.27287,1.55678 3.54933,2.03862 0.21921,0.0827 0.33896,-0.32793 0.47247,-0.52047 0.18161,-0.26196 0.33914,-0.54247 0.46693,-0.83447 0.64445,-1.47235 0.75997,-3.02995 0.91673,-4.60763 0.13833,-3.08849 0.0709,-6.18861 -0.2305,-9.26566 -0.49456,-1.65158 -0.36336,-1.69 -3.89269,-2.13849 -0.39264,-0.0499 -0.33628,0.7177 -0.47291,1.08921 -0.60473,1.64422 -1.00227,3.36679 -1.4223,5.06391 -0.30186,1.35284 -0.60364,2.71701 -0.71622,4.10218 -0.0337,0.41455 -0.0532,0.96089 0.0337,1.38655 0.0198,0.0975 0.0745,0.1846 0.11176,0.27688 1.24526,0.48856 2.41374,1.26175 3.73578,1.46564 0.2943,0.0454 0.21434,-0.5569 0.29078,-0.84469 0.49432,-1.86126 0.58372,-3.82463 0.71252,-5.73561 0.0251,-0.44701 0.0548,-0.89381 0.0752,-1.34106 0.0154,-0.33401 0.0464,-0.66855 0.0318,-1.00259 -0.0718,-1.63473 -2.56537,-1.85843 -3.90763,-1.97959 -0.42879,-0.0387 -0.44598,0.73679 -0.65582,1.11271 -0.27538,0.49329 -0.53301,0.99629 -0.7995,1.49442 -0.82698,1.47934 -1.50103,3.04395 -2.3495,4.51167 -0.16552,0.28636 -0.33398,0.57415 -0.54274,0.83072 -0.0917,0.11276 -0.47437,0.19243 -0.34755,0.2635 1.01793,0.57046 2.15283,0.90095 3.22926,1.35143 -0.2422,-0.9889 -0.23071,-2.01263 -0.2024,-3.02305 0.008,-0.2913 0.0116,-0.58351 0.0442,-0.87309 0.0124,-0.10973 0.18642,-0.26538 0.0898,-0.31883 -1.11297,-0.61592 -2.32209,-1.03936 -3.48313,-1.55903 0.0306,1.74435 -0.0434,3.49758 -0.25726,5.22989 1.10419,0.38192 2.14559,1.08892 3.31256,1.14575 0.33904,0.0164 -0.14327,-0.66358 -0.21653,-0.99499 -0.0936,-0.42331 -0.18532,-0.84704 -0.28403,-1.26916 -0.2812,-1.20237 -0.58172,-2.40098 -0.88453,-3.59806 -0.6177,-1.61857 -0.52372,-1.82071 -3.96055,-1.92821 -0.42267,-0.0132 -0.2749,0.80058 -0.38346,1.20928 -0.14206,0.53475 -0.24887,1.07826 -0.36777,1.61864 -0.19008,0.86376 -0.49549,2.33794 -0.68006,3.22226 -0.09,0.41851 -0.16282,0.84108 -0.26988,1.25555 -0.42928,1.66217 -1.3604,1.50397 3.03462,2.15527 0.35242,0.0522 -0.26631,-0.66225 -0.36526,-1.00452 -0.27546,-0.95279 -0.53337,-2.32987 -0.72813,-3.28874 -0.0944,-0.541 -0.19072,-1.08162 -0.28303,-1.62296 -0.13917,-0.81616 -0.2482,-1.6375 -0.40045,-2.45131 -0.0306,-0.16375 0.0295,-0.41121 -0.11977,-0.48522 -3.95862,-1.96313 -3.45371,-2.53285 -3.86101,-0.18021 -0.2793,1.96335 -0.42664,3.94412 -0.71478,5.90627 -0.0403,0.27432 -0.36745,0.65511 -0.14398,0.81926 1.00063,0.73493 2.25494,1.03957 3.3824,1.55935 -0.39118,-1.5452 -0.32205,-3.16228 -0.38092,-4.74374 -0.009,-0.23845 0.16188,-0.58651 -0.0393,-0.71472 -1.09807,-0.69959 -2.38003,-1.05659 -3.57002,-1.58488 -0.50745,2.12272 0.0643,-0.29922 -0.46109,2.03231 -0.0772,0.34243 -0.1287,0.69252 -0.24088,1.02513 -0.0681,0.20198 -0.13597,0.42603 -0.29604,0.56679 -0.0711,0.0625 -0.36142,-0.10567 -0.27699,-0.0628 0.9989,0.5071 2.01834,0.97274 3.02752,1.45912 -0.75727,-0.98777 -1.05495,-2.20109 -1.42621,-3.36317 -0.0536,-0.16764 -0.0212,-0.41513 -0.17677,-0.49749 -1.16663,-0.61794 -2.43517,-1.02055 -3.65276,-1.53083 -0.32038,0.93448 -0.41071,1.91955 -0.48786,2.89743 -0.0357,0.45222 0,1.03669 -0.14555,1.48304 1.17782,0.5429 2.30624,1.20917 3.53343,1.62869 0.13309,0.0455 -0.004,-0.2813 -0.003,-0.42195 0.003,-0.5533 0.0458,-1.10787 -0.0574,-1.65434 -4.02167,-1.6638 -3.228,-2.57437 -4.5035,-0.2404 -0.005,0.009 -0.64807,1.221 -0.69739,1.28823 -0.0663,0.0904 -0.17481,0.14018 -0.26223,0.21027 1.10035,0.52948 2.16485,1.14104 3.30105,1.58847 0.13407,0.0528 -0.17238,-0.23685 -0.2168,-0.3739 -0.0726,-0.22389 -0.0979,-0.46088 -0.12943,-0.69411 -0.10687,-0.78965 -0.11131,-1.5857 -0.10967,-2.38054 0.23868,-1.43383 0.25865,-1.12958 -3.60326,-1.55749 -0.31377,-0.0348 -0.14766,0.61391 -0.22823,0.91913 -0.10207,0.38674 -0.51011,1.89085 -0.67717,2.27105 -0.0966,0.21985 -0.2639,0.40124 -0.39584,0.60185 -1.61425,-0.4051 1.64475,1.11167 2.59289,1.304 0.33128,0.0672 -0.35859,-0.5747 -0.50602,-0.87892 -0.53142,-1.09649 -0.86082,-2.27931 -1.21158,-3.44104 -0.95795,-1.56951 -0.83047,-1.60364 -4.22074,-2.14373 -0.36531,-0.0582 -0.47741,0.56613 -0.69368,0.86624 -0.73004,1.01315 -1.3348,2.11754 -1.94652,3.2035 -0.15311,0.27279 -0.27239,0.56753 -0.45934,0.81836 -0.81254,1.09011 -4.31779,-0.39021 2.86957,1.81644 0.2101,0.0645 -0.19802,-0.39971 -0.23368,-0.61661 -0.12719,-0.77356 -0.0364,-1.70273 0.003,-2.47214 0.0534,-0.29596 0.069,-0.60137 0.16039,-0.88788 0.0204,-0.064 0.10766,-0.0804 0.16148,-0.12055 -1.15004,-0.42108 -2.22555,-1.24632 -3.45014,-1.26325 -0.40548,-0.006 -0.033,0.81068 -0.0689,1.21459 -0.10988,1.23545 -0.23276,1.93387 -0.41582,3.16209 -0.0848,0.47474 -0.21987,1.67172 -0.53705,2.19231 -0.0506,0.0831 -0.35711,0.0632 -0.27099,0.10854 1.0228,0.53789 2.03626,1.16821 3.16548,1.41374 0.28768,0.0626 -0.26451,-0.5276 -0.3642,-0.80459 -0.12721,-0.35346 -0.2099,-0.72136 -0.31483,-1.08204 -0.0943,-0.37209 -0.18936,-0.74393 -0.28289,-1.1162 -0.14931,-0.5942 -0.29202,-1.19004 -0.44352,-1.78366 -0.0391,-0.15314 0.0101,-0.37151 -0.12227,-0.45808 -3.63884,-2.38252 -3.08485,-3.11234 -3.79701,-1.14678 -0.58555,2.44282 -1.3145,4.84688 -2.16828,7.2087 -0.0909,0.17145 -0.1052,0.41638 -0.27271,0.51438 -0.0922,0.054 -0.17425,-0.34621 -0.073,-0.3121 1.08016,0.36369 2.00398,1.31151 3.1432,1.34588 0.41963,0.0127 -0.0994,-0.83484 -0.11202,-1.25444 -0.0317,-1.05286 0.0634,-2.06801 0.13456,-3.11669 0.036,-0.33157 0.15637,-1.84557 0.33954,-2.29412 0.0272,-0.0667 0.27522,-0.0262 0.20916,-0.0549 -1.07458,-0.4689 -2.10646,-1.18721 -3.27499,-1.28289 -0.34658,-0.0284 0.13192,0.6835 0.1723,1.02889 0.051,0.43603 0.0676,0.87543 0.10144,1.31313 0,1.14641 0.16155,2.33852 -0.11245,3.47091 -0.0473,0.19539 -0.10168,0.40375 -0.23228,0.55657 -0.0612,0.0717 -0.36163,-0.004 -0.27958,0.0424 0.97734,0.55261 2.00932,1.00245 3.014,1.5037 -0.1887,-0.19703 -0.4019,-0.37324 -0.56611,-0.59113 -0.44614,-0.59198 -0.90521,-1.51614 -1.21941,-2.16371 -0.5216,-1.07497 -0.96308,-2.18128 -1.40681,-3.28959 -0.73504,-1.89307 -0.80386,-2.05925 -4.09594,-2.62678 -0.30194,-0.0521 -0.16232,0.59116 -0.22873,0.89027 -0.1977,0.89027 -0.36309,1.78747 -0.55652,2.67866 -0.22569,0.97195 -0.39746,1.73273 -0.63834,2.69246 -0.0847,0.33732 -0.15502,0.6791 -0.264,1.00936 -0.0541,0.16406 -0.37251,0.38041 -0.22341,0.46773 3.72506,2.18122 3.38378,2.41702 3.40653,0.29601 0.10891,-1.6043 0.33608,-3.19854 0.60492,-4.78306 0.0745,-0.43928 0.11975,-0.88614 0.24217,-1.31455 0.0508,-0.17767 0.42887,-0.38637 0.27154,-0.48332 -1.01285,-0.62417 -2.19487,-0.91887 -3.29234,-1.37829 0.0751,0.36632 0.18037,0.72771 0.22535,1.09895 0.12332,1.01822 0.11337,2.23271 0.0841,3.25099 -0.0214,0.74234 -0.0956,2.06131 -0.20122,2.83096 -0.0392,0.28546 -0.11351,0.56502 -0.17026,0.84751 -1.12937,0.67985 -1.3906,0.7397 2.81022,1.54456 0.35933,0.0688 -0.43193,-0.59335 -0.60568,-0.91533 -0.75904,-1.40671 -1.30803,-3.08239 -1.85071,-4.58594 -0.14751,-0.43249 -0.29305,-0.86566 -0.44254,-1.29749 -0.67411,-1.94715 -0.86368,-2.36971 -4.12515,-2.68481 -0.36475,-0.0352 -0.0669,0.73007 -0.0852,1.09604 -0.0228,0.45619 -0.0254,0.91316 -0.0382,1.36972 -0.0693,1.39769 -0.0571,1.27431 -0.14634,2.61922 -0.023,0.34853 -0.0206,0.70003 -0.0737,1.04529 -0.0314,0.20471 -0.1365,0.94141 -0.51702,1.03047 -0.12753,0.0298 -0.24392,-0.0956 -0.36587,-0.1434 -1.43885,-1.18214 0.49282,0.46053 2.15263,0.94384 0.29231,0.0851 -0.38812,-0.47037 -0.55891,-0.72241 -0.45296,-0.66847 -0.75784,-1.40068 -1.04949,-2.14779 -0.60921,-1.7295 -0.27708,-1.10032 -3.79794,-2.34473 -0.0278,-0.01 -0.31964,1.256 -0.34504,1.35913 -0.0578,0.23607 -0.13793,0.58153 -0.21212,0.82151 -0.0238,0.077 -0.0494,0.15388 -0.0828,0.22728 -0.013,0.0283 -0.0825,0.0611 -0.0549,0.0753 3.54602,1.82491 3.4436,2.96799 3.48443,1.45063 0.13549,-0.93069 0.36295,-1.8416 0.62627,-2.74309 0.2083,-0.62931 0.43468,-1.2804 0.83153,-1.8189 0.51139,-0.37754 1.22637,-0.39238 1.83396,-0.4058 0.98679,-0.0217 1.39155,0.0366 2.40297,0.11441 1.35742,0.16192 2.69933,0.42635 4.04911,0.63714 1.26277,0.1972 2.53304,0.34071 3.80232,0.48768 1.09228,0.0981 2.2265,0.1674 3.30597,-0.0891 0.42262,-0.10041 0.77481,-0.26459 1.1743,-0.42942 1.20304,-0.57465 2.45216,-1.02963 3.72047,-1.43772 1.29899,-0.41796 0.8364,-0.32221 1.88428,-0.44154 -1.10538,-0.62227 -2.15585,-1.35421 -3.31616,-1.86687 -0.14811,-0.0654 -0.29281,0.1383 -0.4391,0.2077 -0.33486,0.15885 -0.66402,0.3302 -1.00428,0.47704 -1.46603,0.6327 -2.98116,1.10292 -4.50651,1.56607 -2.48291,0.69646 -4.97356,1.38335 -7.51213,1.84669 -0.89712,0.13467 -1.78766,0.3048 -2.69375,0.36546 -0.71313,0.0723 -1.0327,-0.0364 -1.62753,-0.42259 6.74195,3.65853 3.03098,2.34381 2.65038,1.17772 -0.132,-0.40442 -0.0111,-0.79196 0.10695,-1.17798 0.0792,-0.12883 0.14062,-0.27057 0.23772,-0.38653 0.50456,-0.60256 1.33565,-0.85238 2.05404,-1.06987 0.97198,-0.29427 1.85561,-0.47064 2.85031,-0.69302 5.40141,-1.09358 10.92242,-1.1815 16.41099,-1.2895 5.90674,-0.14341 11.81452,0.14358 17.72105,0.0497 0.79015,-0.0127 1.57983,-0.0471 2.36974,-0.0705 2.84583,-0.19981 5.62867,-0.90318 8.19891,-2.13836 0.79632,-0.41572 1.49886,-0.97894 2.22475,-1.50215 0.9127,-0.6745 1.9336,-1.07482 2.9941,-1.45026 3.11232,-0.93938 6.38355,-1.08379 9.60763,-1.26315 3.89454,-0.21127 7.801,-0.15586 11.69128,0.11483 1.00412,0.0699 2.00562,0.17317 3.00844,0.25974 0,0 -2.34267,-1.73138 -2.34267,-1.73138 v 0 c -0.99354,-0.0764 -1.98623,-0.16465 -2.98061,-0.2291 -3.9755,-0.25768 -7.96116,-0.34785 -11.94414,-0.26347 -3.38071,0.0935 -6.79548,0.18489 -10.08835,1.04008 -0.28797,0.0849 -0.57912,0.15967 -0.86392,0.25468 -0.83328,0.27795 -1.61261,0.71086 -2.34206,1.19423 -0.70507,0.49429 -1.33676,1.08161 -2.06513,1.54292 -0.22577,0.12739 -0.44638,0.26442 -0.67733,0.38219 -2.17662,1.11 -4.57515,1.67026 -6.99193,1.94071 -0.74404,0.0529 -1.48728,0.11912 -2.23216,0.15875 -2.07193,0.11026 -3.73923,0.12759 -5.83541,0.15217 -3.84027,0.0451 -7.68099,0.0507 -11.52144,0.0587 -2.12622,0.008 -5.64568,0.013 -7.80368,0.0563 -1.39451,0.028 -4.39507,0.11856 -5.89346,0.25249 -0.95567,0.0854 -2.501,0.36346 -3.458,0.52448 -0.69606,0.13864 -2.29343,0.44622 -3.00937,0.62841 -1.1185,0.28467 -2.09296,0.57174 -2.6775,1.63037 -0.19894,0.57922 -0.39487,1.20144 -0.14753,1.80483 0.57044,1.39149 4.1612,1.43597 3.76981,2.47869 0.66151,0.30552 1.06158,0.33179 1.77633,0.24358 0.86471,-0.10663 1.70836,-0.32203 2.55669,-0.51565 2.44663,-0.60476 4.85262,-1.36242 7.27853,-2.04348 1.56745,-0.47432 3.13029,-0.95838 4.68006,-1.48844 0.38838,-0.13282 0.78369,-0.24863 1.16133,-0.40955 0.28359,-0.12084 1.03209,-0.21275 0.81688,-0.43341 -0.90972,-0.93271 -2.19543,-1.40362 -3.29314,-2.10545 -1.83927,0.75557 -3.81143,1.12204 -5.63655,1.91799 -0.36994,0.13488 -0.73692,0.2835 -1.1231,0.36883 -1.01558,0.22439 -2.07039,0.19976 -3.09949,0.11686 -1.046,-0.10197 -1.32744,-0.12001 -2.40231,-0.26633 -1.80575,-0.24582 -3.59598,-0.59653 -5.40573,-0.81555 -0.95464,-0.0833 -1.60726,-0.1619 -2.55609,-0.16491 -0.76181,-0.003 -1.64377,-0.0151 -2.21331,0.56912 -0.39606,0.59669 -0.62349,1.2886 -0.82222,1.97215 -0.24876,0.91728 -0.48022,1.8379 -0.73142,2.75386 -0.3244,1.57361 -0.16584,0.37687 3.42572,2.30267 0.0447,0.0241 0.0292,-0.0974 0.04,-0.147 0.0459,-0.21201 0.0762,-0.42712 0.12034,-0.63953 0.0315,-0.15184 0.0673,-0.30281 0.10088,-0.45423 0.1424,-0.53478 0.0931,-0.38854 0.26689,-0.89427 0.023,-0.0673 0.13311,-0.16237 0.0731,-0.20066 -1.09035,-0.69548 -2.25232,-1.27177 -3.37846,-1.90765 0.0638,0.0477 0.14597,0.0777 0.19142,0.14307 0.0965,0.13885 0.14957,0.30337 0.22434,0.45503 0.33327,0.76726 0.65532,1.53831 1.08683,2.25779 0.15632,0.26062 0.26099,0.5764 0.50271,0.76057 2.83684,2.16162 2.52238,1.98626 4.37761,2.7295 0.17854,-0.0514 0.38865,-0.0405 0.53565,-0.15418 0.35671,-0.27574 0.4263,-0.96723 0.45582,-1.32984 0.0291,-0.35714 0.004,-0.71668 0.0114,-1.07495 0.0275,-1.31559 0.0383,-1.27432 0.11756,-2.62565 0.0469,-0.42841 0.0736,-0.85952 0.14078,-1.28524 0.0441,-0.27929 0.3992,-0.63283 0.19278,-0.82608 -0.92644,-0.86736 -2.13895,-1.36726 -3.22924,-2.01674 -0.14793,-0.0881 0.30048,0.18759 0.39743,0.32989 0.32393,0.47535 0.81153,1.82575 0.98202,2.25938 0.83844,2.25338 0.33393,0.87059 1.14615,3.16278 0.16227,0.45788 0.32189,0.91672 0.48874,1.37297 0.11724,0.32057 0.0865,0.75782 0.36346,0.95734 3.68334,2.65362 3.2267,3.28362 3.98518,1.60835 0.13234,-2.69811 0.16298,-5.40017 0.31057,-8.09773 -1.17838,-0.69059 -2.26499,-1.56953 -3.53515,-2.07171 -0.20331,-0.0804 -0.0279,0.43648 -0.0509,0.65386 -0.0481,0.45323 -0.10329,0.9057 -0.1625,1.35758 -0.2064,1.57543 -0.45633,3.1456 -0.7824,4.70101 -0.51427,2.16562 -0.67442,1.4219 3.13579,3.20336 0.17526,0.082 0.0415,-0.38486 0.0714,-0.57602 0.19743,-1.26513 0.46474,-2.51936 0.76795,-3.76293 0.20672,-0.7492 0.47485,-1.79081 0.74845,-2.53926 0.0812,-0.22201 0.46511,-0.48683 0.29096,-0.64669 -0.92498,-0.84913 -2.1237,-1.3403 -3.18555,-2.01047 0.10575,0.11475 0.23468,0.21188 0.31726,0.3443 0.14647,0.2348 0.24212,0.49771 0.36317,0.74655 0.94294,2.0718 1.7671,4.20955 2.90822,6.18284 1.27174,0.65701 2.48443,1.4438 3.81524,1.97104 0.14403,0.0571 0.25976,-0.19045 0.32755,-0.32978 0.102,-0.20968 0.13144,-0.44915 0.1638,-0.68008 0.16592,-1.18452 0.008,-2.38152 0.0329,-3.57 -0.003,-0.42701 -0.005,-0.85405 -0.005,-1.28106 8e-5,-0.33435 0.24725,-0.7724 0.005,-1.00298 -3.68845,-3.51319 -3.50009,-3.36251 -3.65283,-0.99954 -0.0303,0.4681 -0.0609,0.93617 -0.0913,1.40427 -0.0417,0.52406 -0.0835,1.04812 -0.12517,1.57218 -0.0442,0.50446 -0.0913,1.00867 -0.13269,1.51337 -0.0332,0.4047 -0.35166,0.90331 -0.0912,1.2148 0.92112,1.10152 2.17437,1.88577 3.36058,2.69492 0.0935,0.0638 0.19394,-0.13478 0.24352,-0.23649 0.0915,-0.18782 0.11089,-0.40293 0.16635,-0.60441 0.53821,-2.06584 1.11418,-4.1569 1.8652,-6.15654 0.1215,-0.32348 0.26816,-0.63696 0.40225,-0.95541 0.77512,-1.3989 0.46024,-0.55912 -2.96442,-2.30634 -0.15925,-0.0813 0.1809,0.31006 0.24667,0.4763 0.37312,0.94287 0.56399,1.95511 0.82108,2.93129 0.0747,0.35621 0.14886,0.71252 0.22408,1.06863 0.0592,0.28014 -0.0474,0.66489 0.1791,0.8401 1.11918,0.86596 2.38048,1.55025 3.66829,2.13675 0.12879,0.0587 0.15676,-0.24164 0.19177,-0.37878 0.19491,-0.76345 0.13041,-1.5803 0.32755,-2.34106 0.21328,-1.35088 0.25781,-1.76768 0.5498,-3.09269 0.0836,-0.37933 0.53851,-0.8388 0.28213,-1.13059 -6.19379,-7.04839 -3.30441,-3.39219 -3.32626,-2.06899 -0.005,0.32142 -0.0359,0.64194 -0.0539,0.9629 -0.0691,0.81659 -0.16415,1.63105 -0.22082,2.44859 -0.0185,0.26863 -0.24064,0.6468 -0.0246,0.8074 3.5845,2.66388 3.30221,2.81797 4.3125,0.60516 0.55485,-1.08548 1.11008,-2.18689 1.93754,-3.09925 0.21386,-0.23577 0.90718,-0.37844 0.71546,-0.63254 -0.67183,-0.89043 -1.77922,-1.34665 -2.69221,-1.98747 -0.19897,-0.13968 0.36488,0.32131 0.54734,0.48196 0.3838,1.153 0.74102,2.3145 1.14363,3.46115 0.10838,0.30869 0.0781,0.72025 0.33536,0.92236 1.14859,0.90234 2.42864,1.64076 3.74166,2.28066 0.14102,0.0687 0.25747,-0.17931 0.38621,-0.26898 0.0984,-0.24336 0.20857,-0.48228 0.29509,-0.73009 0.53242,-1.52529 0.14754,-0.71093 0.75309,-2.21964 0.11033,-0.27485 0.57266,-0.59955 0.36457,-0.81026 -0.9212,-0.93268 -2.19393,-1.43552 -3.29116,-2.15286 -0.0704,-0.046 0.14042,0.0926 0.21061,0.13888 0.0483,1.03846 0.071,2.07766 0.12317,3.11594 0.01,0.18852 -0.12849,0.46151 0.029,0.5655 1.14035,0.75282 2.43401,1.24264 3.65104,1.86393 0.45881,-0.7426 0.75162,-1.56821 1.27902,-2.27409 0.1206,-0.16145 0.55179,-0.31888 0.40092,-0.45249 -0.93623,-0.82907 -2.11521,-1.33472 -3.1728,-2.0021 0.3719,0.007 0.26678,-0.0771 0.29874,0.42161 0.15655,2.44213 -1.27728,0.99071 3.40503,3.2462 -0.03,-0.057 -0.077,-0.10787 -0.0898,-0.17095 -0.0738,-0.36314 -0.0716,-1.05251 -0.0604,-1.37432 0.0308,-0.87948 0.10446,-1.77017 0.53655,-2.5563 -1.03134,-0.68855 -2.01268,-1.45862 -3.09401,-2.06563 -0.16875,-0.0947 0.22241,0.31975 0.29988,0.49707 0.11745,0.26879 0.18807,0.55571 0.28157,0.8337 0.29734,0.88395 0.57647,1.77684 0.95758,2.62967 1.23724,0.72922 2.41231,1.57602 3.71171,2.18763 0.27429,0.12912 0.42629,-0.48953 0.54536,-0.96308 0.23309,-0.92708 0.35972,-1.89461 0.82087,-2.74937 -1.03013,-0.6904 -1.96419,-1.55202 -3.09034,-2.07121 -0.2381,-0.10975 0.1909,0.493 0.22953,0.75234 0.0624,0.41889 0.0568,0.84527 0.0715,1.26852 0.0397,1.14115 0.0694,2.30145 -0.12578,3.43104 1.16281,0.59534 2.22308,1.46135 3.48845,1.78604 0.28636,0.0735 0.004,-0.59139 0.0159,-0.8868 0.0801,-1.959 0.27088,-3.92393 0.73142,-5.83311 0.74721,-2.08172 0.72146,-1.02939 -2.76278,-3.10573 -0.17219,-0.10261 0.2744,0.30448 0.34647,0.49151 0.13769,0.35735 0.1874,0.74271 0.27292,1.11599 0.31535,1.37655 0.34324,1.60832 0.61457,3.05154 0.16653,0.96891 0.39579,2.19316 0.49747,3.18352 0.0349,0.33973 -0.21505,0.80987 0.0516,1.02328 3.91811,3.13584 3.42115,2.99199 3.65993,1.06365 0.0537,-0.43336 0.11936,-0.86516 0.17902,-1.29775 0.27921,-1.59155 0.53986,-3.20178 1.14009,-4.71319 0.13515,-0.34036 0.72258,-0.68852 0.49916,-0.97869 -0.74207,-0.96385 -1.89941,-1.52884 -2.92878,-2.17699 -0.19907,-0.12536 0.26501,0.38873 0.39751,0.58309 0.36669,1.18525 0.71499,2.37937 0.95478,3.59833 0.079,0.40164 0.13875,0.80701 0.19299,1.21275 0.0408,0.30501 -0.13677,0.71273 0.092,0.91858 1.0238,0.92138 2.30137,1.51399 3.45204,2.27099 -0.0214,-1.71934 0.0276,-3.45985 0.36507,-5.14966 -1.14437,-0.67241 -2.2375,-1.44082 -3.4331,-2.01721 -0.12316,-0.0594 0.0734,0.26538 0.0825,0.40182 0.0201,0.30075 0.005,0.60283 0.005,0.90424 0,1.01434 -0.007,2.02901 -0.039,3.04292 1.17727,0.74883 2.27703,1.63632 3.53177,2.24653 0.14261,0.0693 0.14639,-0.28157 0.21106,-0.42638 0.13721,-0.30723 0.25894,-0.62119 0.39438,-0.92922 0.67943,-1.54514 1.40243,-3.07361 2.27555,-4.52083 0.30824,-0.46153 0.58875,-0.94286 0.92475,-1.38464 0.23669,-0.3112 1.01245,-0.54753 0.78875,-0.8682 -0.67951,-0.97412 -1.88622,-1.44598 -2.86862,-2.11342 -0.14483,-0.0984 0.29324,0.22982 0.34322,0.39765 0.13129,0.44079 0.0748,2.06401 0.0716,2.40043 -0.0827,1.49754 -0.1846,2.97085 -0.55142,4.43222 -0.0911,0.36295 -0.19704,0.72356 -0.3342,1.07172 -0.0886,0.22492 -0.51569,0.47424 -0.34017,0.64042 0.9081,0.85966 2.10471,1.35083 3.15706,2.02626 -0.10157,-0.0325 -0.24095,-0.0122 -0.30469,-0.0975 -0.19704,-0.26422 -0.24927,-1.16076 -0.25567,-1.38277 -0.0405,-1.40263 0.18177,-2.80011 0.46162,-4.16883 0.33782,-1.35879 0.4881,-2.13947 0.98687,-3.44881 0.18275,-0.47972 0.38716,-0.95301 0.62994,-1.40531 0.15053,-0.28041 0.75057,-0.54078 0.54513,-0.78386 -0.76857,-0.90937 -1.91535,-1.42038 -2.93193,-2.0402 -0.16891,-0.10297 0.23987,0.31467 0.35981,0.47199 0.57009,3.0634 0.72096,6.20517 0.52416,9.31336 -0.20836,1.51122 -0.35052,2.9559 -1.12487,4.30869 -0.14071,0.24577 -0.31044,0.47937 -0.51319,0.67707 -0.1065,0.10382 -0.50887,0.11287 -0.39465,0.20815 0.92958,0.77549 2.02335,1.32969 3.03503,1.99453 -0.0406,-0.13383 -0.11909,-0.26167 -0.12184,-0.4015 -0.008,-0.41381 0.24408,-1.38306 0.34835,-1.71141 0.46215,-1.45497 1.186,-2.79926 2.00554,-4.08173 1.07368,-1.50304 2.00356,-2.83329 3.46298,-4.00629 0.34515,-0.27742 0.71077,-0.53425 1.10143,-0.74269 0.28252,-0.15076 1.10395,-0.0775 0.90329,-0.32702 -0.68644,-0.8536 -1.7915,-1.26095 -2.68724,-1.89143 0.12308,0.0793 0.32901,0.0972 0.36922,0.23797 0.13394,0.46858 -0.4595,1.32919 -0.6251,1.59366 -0.60264,0.96261 -1.30985,1.85534 -2.21194,2.55508 -1.54946,0.86318 -1.17999,0.44736 2.54441,2.43819 0.12804,0.0684 0.11549,-0.26955 0.20355,-0.38494 0.26236,-0.34377 1.08714,-1.15358 1.35377,-1.40552 0.31384,-0.29657 0.63925,-0.58065 0.95887,-0.87101 1.50022,-1.27476 3.19172,-2.78651 5.17483,-3.21466 0.15528,-0.0335 0.31668,-0.0257 0.475,-0.0385 z" />
    <path
       style="fill:#000000;fill-opacity:1;stroke-width:100"
       d="M 759.88332,337.60833 Z"
       id="path202" />
    <rect
       style="fill:#ff0000;fill-opacity:1;fill-rule:evenodd;stroke-width:0.264583"
       id="rect221"
       width="156.63333"
       height="80.962502"
       x="-1017.537"
       y="457.67273"
       transform="rotate(-126.84111)" />
    <rect
       style="fill:#ff0000;fill-opacity:1;fill-rule:evenodd;stroke-width:0.264583"
       id="rect222"
       width="156.63333"
       height="80.962502"
       x="-543.8916"
       y="974.55115"
       transform="rotate(-90.180833)" />
    <path
       style="fill:#ff0000;fill-opacity:1;stroke:#000000;stroke-width:0;stroke-dasharray:none;stroke-opacity:1"
       d="m 769.14374,485.86035 -73.55417,21.87506"
       id="path223" />
    <rect
       style="fill:#0000ff;fill-rule:evenodd;stroke-width:0.264583"
       id="rect223"
       width="5.1476045"
       height="68.008301"
       x="756.26337"
       y="454.46384" />
    <rect
       style="fill:#0000ff;fill-rule:evenodd;stroke-width:0.264583"
       id="rect224"
       width="5.1476045"
       height="68.008301"
       x="756.26337"
       y="454.46384" />
    <rect
       style="fill:#0000ff;fill-rule:evenodd;stroke-width:0.560337"
       id="rect225"
       width="5.1510849"
       height="304.82083"
       x="-521.33569"
       y="650.13776"
       transform="matrix(0.03770397,-0.99928895,0.99999824,0.00187802,0,0)" />
    <rect
       style="fill:#0000ff;fill-rule:evenodd;stroke-width:0.473318"
       id="rect226"
       width="5.1492887"
       height="217.57275"
       x="-457.63898"
       y="691.3822"
       transform="matrix(0.02692141,-0.99963755,0.99999654,0.00263112,0,0)" />
    <rect
       style="fill:#0000ff;fill-rule:evenodd;stroke-width:0.2702"
       id="rect228"
       width="5.2653451"
       height="69.340446"
       x="552.16998"
       y="839.98724"
       transform="matrix(0.8719412,-0.48961061,0.49425959,0.86931436,0,0)" />
    <path
       style="fill:#0000ff;fill-opacity:1;stroke:#000000;stroke-width:0;stroke-dasharray:none;stroke-opacity:1"
       d="m 896.77014,454.71725 4.45241,2.56947 -4.59105,2.57797 z"
       id="path228" />
    <rect
       style="fill:#0000ff;fill-rule:evenodd;stroke-width:0.265351"
       id="rect229"
       width="5.1476045"
       height="68.403549"
       x="676.48572"
       y="454.15121" />
    <rect
       style="fill:#0000ff;fill-rule:evenodd;stroke-width:0.298571"
       id="rect230"
       width="5.7647247"
       height="77.332214"
       x="814.7262"
       y="-67.512619"
       transform="matrix(0.78144089,0.62397927,-0.59568287,0.80321972,0,0)" />
    <rect
       style="fill:#0000ff;fill-rule:evenodd;stroke-width:0.372519"
       id="rect231"
       width="5.1476045"
       height="134.81396"
       x="299.74689"
       y="759.27484"
       transform="rotate(-28.92978)" />
    <rect
       style="fill:#0000ff;fill-rule:evenodd;stroke-width:0.497648"
       id="rect232"
       width="5.1497025"
       height="240.49557"
       x="-636.10223"
       y="713.77606"
       transform="matrix(0.02975539,-0.99955721,0.99999717,0.00238033,0,0)" />
    <rect
       style="fill:#0000ff;fill-rule:evenodd;stroke-width:0.343566"
       id="rect233"
       width="5.1476045"
       height="114.67235"
       x="930.34711"
       y="517.69983" />
    <rect
       style="fill:#0000ff;fill-rule:evenodd;stroke-width:0.344653"
       id="rect234"
       width="5.1476045"
       height="115.39902"
       x="756.26337"
       y="521.66803" />
    <rect
       style="fill:#0000ff;fill-rule:evenodd;stroke-width:0.179685"
       id="rect235"
       width="5.1475949"
       height="31.366156"
       x="543.22229"
       y="-688.97589"
       transform="matrix(9.8329745e-4,0.99999952,-0.99998907,0.00467652,0,0)" />
    <rect
       style="fill:#0000ff;fill-rule:evenodd;stroke-width:0.179685"
       id="rect236"
       width="5.1475949"
       height="31.366156"
       x="543.75598"
       y="-803.10071"
       transform="matrix(9.8329745e-4,0.99999952,-0.99998907,0.00467652,0,0)" />
    <rect
       style="fill:#0000ff;fill-rule:evenodd;stroke-width:0.213377"
       id="rect237"
       width="4.9879313"
       height="45.647503"
       x="907.60291"
       y="477.28143" />
    <ellipse
       style="fill:#818181;fill-opacity:1;stroke:#0000ff;stroke-width:0;stroke-dasharray:none;stroke-opacity:1"
       id="path241"
       cx="587.54376"
       cy="667.25269"
       rx="51.32917"
       ry="50.667675" />
    <ellipse
       style="fill:#818181;fill-opacity:1;stroke:#0000ff;stroke-width:0;stroke-dasharray:none;stroke-opacity:1"
       id="ellipse241"
       cx="1053.2152"
       cy="667.25269"
       rx="51.32917"
       ry="50.667675" />
    <rect
       style="fill:#ff0000;fill-rule:evenodd;stroke-width:0.264583;fill-opacity:1"
       id="rect241"
       width="97.029755"
       height="214.86856"
       x="371.47501"
       y="477.28143" />
    <rect
       style="fill:#ff0000;fill-rule:evenodd;stroke-width:0.264583;fill-opacity:1"
       id="rect242"
       width="131.23334"
       height="323.02664"
       x="1190.625"
       y="488.71503" />
    <rect
       style="fill:#ff0000;fill-opacity:1;fill-rule:evenodd;stroke-width:0.264583"
       id="rect244"
       width="222.77916"
       height="56.993206"
       x="393.82355"
       y="479.69067" />
    <rect
       style="fill:#ff0000;fill-opacity:1;fill-rule:evenodd;stroke-width:0.264583"
       id="rect245"
       width="131.63965"
       height="34.273216"
       x="-91.275421"
       y="-805.64612"
       transform="rotate(127.772)" />
    <path
       style="fill:#64ff00;fill-opacity:1;stroke:#0000ff;stroke-width:0;stroke-dasharray:none;stroke-opacity:1"
       d="m 616.60269,519.58377 -17.10041,17.1001 17.10044,3e-5 z"
       id="path245" />
    <path
       style="fill:#64ff00;fill-opacity:1;stroke:#0000ff;stroke-width:0;stroke-dasharray:none;stroke-opacity:1"
       id="path246"
       d="m 617.17933,532.31393 c -0.0251,0.0306 -0.0491,0.0622 -0.0754,0.0918 -0.16102,0.18026 -0.33668,0.34827 -0.50141,0.52514 -0.0995,0.10684 -0.51871,0.56634 -0.59756,0.65263 -0.12594,0.13459 -0.25223,0.26889 -0.37785,0.4038 -0.1615,0.17344 -0.31438,0.35523 -0.4835,0.52123 -0.30052,0.29499 -0.95943,0.85738 -1.28148,1.10686 -0.57029,0.44177 -0.78396,0.56118 -1.37594,0.94057 0,0 2.75039,1.74357 2.75039,1.74357 v 0 c 0.58481,-0.49212 0.62421,-0.54025 1.26934,-1.01584 0.24715,-0.18219 0.50282,-0.35261 0.75097,-0.53345 0.22675,-0.16528 0.44614,-0.34054 0.6736,-0.50485 0.2099,-0.15163 0.43095,-0.28766 0.6382,-0.44289 0.15248,-0.11419 0.29337,-0.24312 0.44006,-0.3647 0.46487,-0.37309 0.94086,-0.75552 1.48987,-0.99854 z" />
    <path
       style="fill:#64ff00;fill-opacity:1;stroke:#0000ff;stroke-width:0;stroke-dasharray:none;stroke-opacity:1"
       id="path247"
       d="m 615.45972,524.44583 c 0.0249,0.11483 0.0622,0.22765 0.0746,0.34449 0.0712,0.67389 -0.0246,1.39927 -0.10038,2.06735 -0.12444,1.09762 -0.0868,0.78573 -0.27848,1.87521 -0.27038,1.29151 -0.57454,2.57828 -0.95192,3.84315 0,0 3.15828,1.68198 3.15828,1.68198 v 0 c 0.10832,-1.3653 0.29885,-2.72325 0.51403,-4.07535 0.0607,-0.30898 0.11343,-0.61965 0.18209,-0.92697 0.0183,-0.0812 0.37931,-1.50307 0.41754,-1.64706 0.0771,-0.29016 0.21458,-0.80581 0.33417,-1.10492 0.0387,-0.0968 0.0945,-0.1859 0.14168,-0.27882 z" />
    <path
       style="fill:#64ff00;fill-opacity:1;stroke:#0000ff;stroke-width:0;stroke-dasharray:none;stroke-opacity:1"
       id="path252"
       d="m 625.68036,520.24293 c -0.0613,0.003 -0.22553,-0.0109 -0.27855,0.0613 -0.054,0.0733 -0.0254,0.18929 0.0198,0.25501 0.0322,0.0465 0.0806,0.0794 0.11941,0.12052 0.0567,0.06 0.11149,0.12181 0.16722,0.18272 0.0888,0.0886 0.17533,0.17962 0.26651,0.26582 0.2689,0.25414 0.78047,0.75192 1.14086,0.80219 0.58761,0.082 1.18515,-0.075 1.77847,-0.0723 0.029,1.3e-4 -0.21322,0.13046 -0.21614,0.13208 0.24382,0.0159 0.0135,0.0156 0.44921,-0.12579 0.1,-0.0324 0.20355,-0.0524 0.30539,-0.0783 0.0707,-0.018 0.14562,-0.0236 0.21217,-0.0534 0.18991,-0.0852 0.18819,-0.11025 0.28834,-0.24616 -0.006,-0.1192 -0.0151,-0.11121 0.0467,-0.25988 0.27138,-0.65442 0.41228,-0.59245 0.43368,-1.59919 0.003,-0.13936 -0.15679,-0.67704 -0.23955,-0.95988 0.0246,0.029 0.0536,0.0548 0.0738,0.087 0.0885,0.14089 0.12121,0.33793 0.13476,0.49948 0.0225,0.26808 0.0722,0.28904 -0.0267,0.22024 -0.008,0 -0.0214,0.009 -0.0235,0 -0.0597,-0.21047 -0.062,-0.44018 -0.15693,-0.63727 -0.53205,-1.10461 -0.31419,-0.50623 -0.74247,-0.98745 -0.007,-0.008 0.0225,-0.003 0.0337,-0.004 -0.0271,-0.0238 -0.0542,-0.0474 -0.0812,-0.0712 0.0143,0.006 0.0307,0.009 0.0428,0.0188 0.10585,0.0861 0.21248,0.17209 0.30948,0.2681 0.068,0.0673 0.11978,0.14949 0.18404,0.22045 0.003,0.003 0.0161,0.003 0.0138,-0.003 -0.0278,-0.0417 -0.0542,-0.14859 -0.0936,-0.11761 -0.0397,0.0312 0.0528,0.0859 0.0793,0.12888 0.0437,0.0941 0.0636,0.13393 0.10541,0.25016 0.007,0.0201 0.009,0.0415 0.0143,0.0621 0.0138,0.0546 0.0752,0.11732 0.0429,0.16341 -0.0281,0.0401 -0.0414,-0.0889 -0.065,-0.13185 -0.0905,-0.16435 -0.18484,-0.32657 -0.27728,-0.48984 -1.2011,-1.03543 -0.4912,-0.69763 -2.32418,-0.89152 -0.0587,-0.006 -0.11803,-0.007 -0.17711,-0.007 -0.0368,-1.3e-4 -0.0994,0.0236 -0.13319,-0.0135 -0.007,-0.008 -0.005,-0.0204 -0.008,-0.0305 0,-0.0225 0.005,-0.057 -0.004,-0.0803 -0.16062,-0.39973 -0.81716,-0.0904 1.10795,-0.0974 0.0214,-8e-5 -0.0406,0.0159 -0.0569,0.0297 -0.023,0.0196 -0.0394,0.0458 -0.0592,0.0687 -0.42709,0.0291 -0.86045,0.009 -1.28127,0.0874 -0.13454,0.0251 -0.24357,0.12914 -0.34874,0.21672 -0.28149,0.2344 -0.59373,0.4481 -0.80714,0.74581 -0.19122,0.2667 -0.27731,0.59661 -0.37891,0.90863 -0.46913,1.44079 0.0625,0.15806 -0.10999,0.56798 -0.006,0.0156 -0.006,0.0588 -0.0177,0.0467 -0.0279,-0.0294 -0.0246,-0.10223 -0.0238,-0.14229 0,-0.0201 -0.007,-0.14023 0.022,-0.17687 0.005,-0.006 0.0138,0.003 0.0209,0.005 0,0.028 -0.003,0.0559 -0.003,0.0839 0,0.0404 0,0.0808 -1.3e-4,0.12113 -0.003,0.0977 -0.018,0.19537 -0.0122,0.29295 0.0114,0.19021 0.0532,0.43619 0.11904,0.62312 0.0355,0.10088 0.0823,0.19743 0.12342,0.29615 0.0603,0.10252 0.1137,0.20939 0.18077,0.3076 0.0363,0.0532 0.0834,0.0983 0.12808,0.14465 0.12105,0.12552 0.23186,0.26313 0.36899,0.37084 0.16253,0.12763 0.34417,0.22955 0.52435,0.33075 0.0683,0.0384 0.14063,0.0791 0.21865,0.0866 0.41402,0.0398 0.83109,0.0362 1.24661,0.0543 -0.37256,0 -0.74519,-0.006 -1.11767,0.003 -0.066,0 -0.13687,-0.005 -0.19646,0.0238 -0.11226,0.0533 -0.0151,0.17243 0.0281,0.2108 0.0894,0.0794 0.1769,0.0715 0.28745,0.0849 0.13173,0.0161 0.22016,-0.11097 0.34015,-0.12605 0.42701,-0.0537 0.86489,-0.0204 1.28693,-0.10467 0.11967,-0.0241 0.23172,-0.11004 0.29824,-0.21238 0.4237,-0.65169 0.97538,-1.2691 1.15638,-2.02507 0.0952,-0.39777 -0.26217,-0.77488 -0.39327,-1.16234 -0.0183,-0.0411 -0.0435,-0.0798 -0.0549,-0.12329 -0.006,-0.0228 0.0259,0.0392 0.0381,0.0592 0.0412,0.067 0.0908,0.12964 0.12226,0.20172 0.0959,0.21973 0.20093,0.43846 0.25876,0.67116 0.0864,0.34785 0.043,0.53073 0.004,0.84924 -0.0116,0.0455 -0.0233,0.091 -0.0347,0.13644 -0.003,0.005 -0.01,0.0183 -0.009,0.0132 0.0568,-0.18489 0.0618,-0.14509 0.0934,-0.34845 0.0268,-0.17262 0.0212,-0.22366 0.0225,-0.3959 0.003,-0.10708 0.008,-0.14631 -0.003,-0.2431 -0.003,-0.0159 -0.009,-0.0311 -0.008,-0.047 2.1e-4,-0.005 0.008,0.007 0.01,0.0111 0.003,0.007 0,0.0151 0.003,0.0222 0.003,0.0119 0.008,0.0233 0.0124,0.0348 0,0.008 0.003,0.0156 0,0.0233 0,0.006 -0.005,0.0106 -0.007,0.0159 -0.008,0.0819 -0.0169,0.16385 -0.0257,0.24577 -0.004,0.0351 -0.003,0.0711 -0.0111,0.10546 -0.1538,0.63709 -0.085,0.24006 -0.12502,0.47895 0.0396,0.0876 -0.25677,0.23273 -0.15967,0.27593 0.0692,0.0308 0.0875,-0.12364 0.12872,-0.18716 0.0225,-0.0348 0.0509,-0.0678 0.0626,-0.10766 0.007,-0.0251 -0.0326,0.0406 -0.0489,0.0609 0.15283,-0.25975 -3.52073,-2.42097 -3.67355,-2.1612 v 0 c -0.0257,0.0332 -0.0451,0.0725 -0.0772,0.0995 -0.0614,0.0515 0.31842,-0.44768 0.13044,-0.20661 -0.16082,0.20624 -0.13669,0.17544 -0.22643,0.36017 -0.0693,0.20307 -0.10729,0.30988 -0.17439,0.56693 -0.0127,0.0485 -0.0154,0.099 -0.0214,0.14872 -0.0119,0.0959 -0.0214,0.19195 -0.0324,0.28792 -0.003,0.0209 -0.007,0.0414 -0.007,0.0623 0,0.0241 0,0.0483 0.003,0.0724 0.005,0.0279 0.01,0.0558 0.0143,0.0838 0.003,0.0225 0.003,0.045 0.006,0.0672 0.003,0.019 0.01,0.0371 0.0143,0.0559 0,0.003 -0.003,-0.003 -0.003,-0.006 0,-0.0164 -0.003,-0.0331 0,-0.0496 0,-0.0364 0.004,-0.0726 0.006,-0.1089 0,-0.13703 -0.004,-0.17775 0.0175,-0.31491 0.0483,-0.31483 0.007,0.007 0.0707,-0.26271 0.0188,-0.079 -0.24152,0.62987 -0.0759,0.23128 -0.0503,0.35208 -0.10343,0.54983 -0.0124,0.93411 0.0583,0.24601 0.16606,0.47815 0.26771,0.70964 0.037,0.0843 0.0956,0.15745 0.14671,0.23402 0.0212,0.0319 0.032,0.0916 0.0704,0.091 0.0313,0 -0.013,-0.0612 -0.0196,-0.0918 -0.58118,-1.78946 -0.6224,-0.95734 0.78759,-3.14928 0.0609,-0.0947 0.15777,-0.1828 0.26805,-0.20564 0.2836,-0.0587 1.05722,0.21839 1.28428,-0.18669 0.0103,-0.0182 0.0117,-0.0404 0.0172,-0.0607 -0.007,0 -0.0138,-0.006 -0.0198,-0.003 -0.11679,0.0515 0.008,0.0371 -0.15018,0.12266 -0.0579,0.0314 -0.12123,0.0556 -0.18632,0.0657 -0.48408,0.0755 -1.0024,-0.21418 -1.46979,0.008 0.39717,0.0183 0.79595,0.0148 1.19153,0.0546 0.0625,0.006 0.11599,0.0493 0.16928,0.0825 0.16311,0.10168 0.33062,0.19896 0.47879,0.32144 0.12364,0.10223 0.22241,0.2313 0.33181,0.34864 0.0331,0.0355 0.0692,0.0691 0.0956,0.10985 0.0548,0.0843 0.0979,0.17571 0.14679,0.26356 0.0318,0.0806 0.068,0.1597 0.0955,0.2419 0.0483,0.14436 0.0776,0.34915 0.0845,0.49089 0.003,0.0724 -0.0119,0.14464 -0.013,0.21714 0,0.0461 -0.003,0.0419 0.0206,0.0495 0.0124,-0.0262 0.0285,-0.051 0.0374,-0.0787 0.0434,-0.1361 0.0424,-0.21741 0.05,-0.36745 0.007,-0.13272 0.007,-0.20408 -0.0233,-0.33975 -0.004,-0.0172 -0.0177,-0.0302 -0.0267,-0.0453 -0.19195,0.004 0.0283,-0.0151 -0.12356,0.41558 -0.10406,0.29506 -0.18632,0.60955 -0.37079,0.86225 -0.20865,0.2858 -0.51316,0.48789 -0.78242,0.7175 -0.0918,0.0783 -0.18032,0.18163 -0.29882,0.20449 -0.39389,0.076 -0.80026,0.0565 -1.20039,0.0847 0.0373,0.0503 0.058,0.10441 0.13406,0.10443 0.42963,1.4e-4 0.8599,-0.003 1.28847,-0.032 0.0397,-0.003 0.0648,-0.0471 0.10068,-0.0643 0.0344,-0.0164 0.0724,-0.0241 0.10869,-0.0361 0.0364,-0.018 0.0729,-0.0359 0.1093,-0.0539 0.0145,-0.007 0.11665,-0.0484 0.13917,-0.07 0.004,-0.003 -0.01,-0.004 -0.0146,-0.005 -0.0341,-0.006 -0.0682,-0.0103 -0.10249,-0.0146 -1.79036,-0.21643 -1.06879,0.15018 -2.23613,-0.8863 -0.0873,-0.15756 -0.1756,-0.31454 -0.26194,-0.47263 -0.0188,-0.0342 -0.0539,-0.14329 -0.0531,-0.10429 0.003,0.0687 0.0359,0.13268 0.0551,0.19865 0.0439,0.15046 0.10681,0.29561 0.1869,0.43042 0.0371,0.0566 0.0764,0.11194 0.11141,0.16991 0.0167,0.0275 -0.0505,-0.0468 -0.0561,-0.0785 -0.004,-0.0212 0.0353,0.0249 0.0495,0.0408 0.0748,0.084 0.13695,0.17944 0.21696,0.2585 0.10835,0.10705 0.2263,0.20434 0.34634,0.29808 0.0243,0.019 0.0562,0.0254 0.0842,0.0382 -0.0146,-0.0183 -0.0289,-0.0367 -0.0434,-0.0551 0.0217,0.004 0.0782,0.0296 0.0654,0.0114 -0.0504,-0.0716 -0.13567,-0.11356 -0.18724,-0.18439 -0.69914,-0.95975 -0.40005,-0.47974 -0.66794,-1.40642 -0.003,-0.0108 -0.0148,0.0167 -0.0225,0.0249 -0.12383,0.0323 -0.0497,0.003 -0.0222,0.29729 0.0209,0.22585 0.0732,0.46387 0.19066,0.66109 0.0296,0.0497 0.0696,0.0923 0.10438,0.13853 -0.005,-0.0345 -0.006,-0.0694 -0.0132,-0.1034 -0.0564,-0.26162 -0.18648,-0.51551 -0.17759,-0.78301 0.013,-0.39393 0.13981,-0.77676 0.24202,-1.15744 0.0361,-0.13441 0.12724,-0.24876 0.17105,-0.38084 0.0138,-0.0417 0.0204,-0.0936 0,-0.132 -0.014,-0.0254 -0.0564,-0.0146 -0.0846,-0.0217 -0.0274,-0.0566 -0.0458,-0.0637 0.0759,-0.0927 0.10403,-0.0249 0.2218,0.10232 0.31975,-0.0266 0.0978,-0.0291 0.18658,-0.0839 0.28434,-0.11298 0.0164,-0.005 0.0328,0.009 0.0492,0.0138 -0.0457,0.0188 -0.0926,0.0347 -0.13711,0.056 -0.0546,0.0262 -0.22047,0.0853 -0.15994,0.0861 0.5827,0.008 1.17023,-0.14722 1.74702,-0.0642 0.26416,0.038 0.46853,0.25839 0.68511,0.41431 0.21535,0.15505 0.37489,0.37793 0.58444,0.54049 0.0357,0.0225 0.0662,0.0575 0.10726,0.0677 0.0696,0.0172 0.0691,-0.0541 0.0381,-0.0806 -0.0249,-0.0214 -0.0611,-0.0243 -0.0899,-0.0401 -0.42801,-0.2335 0.12851,0.0424 -0.37198,-0.19873 -0.1048,-0.28594 -4.14858,1.19615 -4.04378,1.48209 z" />
    <path
       style="fill:#64ff00;fill-opacity:1;stroke:#0000ff;stroke-width:0;stroke-dasharray:none;stroke-opacity:1"
       d="m 630.17531,518.83712 c 0.0546,-0.0276 0.10922,7e-5 0.1614,0.019 0.0425,0.0156 0.0531,0.0268 0.0868,0.0538 0.005,0.004 0.0122,0.004 0.0164,0.008 0.003,0.003 0.003,0.006 0.004,0.008 0.003,0.005 0.009,0.007 0.0124,0.0124 0.0117,0.0172 0.0177,0.0347 0.0249,0.0538 0.003,0.006 0.007,0.0106 0.008,0.0164 0.003,0.0108 0.003,0.0222 0.004,0.0331 0.003,0.01 0.006,0.019 0.008,0.0289 0.004,0.0183 0.004,0.0356 0.008,0.0538 0.003,0.008 0.006,0.0164 0.008,0.0249 0.013,0.0565 0.0124,0.11613 0.0124,0.17365 0,0.0427 0.003,0.0857 -0.004,0.12814 -0.004,0.0251 -0.0122,0.0494 -0.0164,0.0744 -0.008,0.0429 0,0.0238 -0.0124,0.0661 -0.006,0.0206 -0.0151,0.0411 -0.0206,0.062 -0.003,0.008 -0.003,0.0167 -0.004,0.0249 -0.003,0.0109 -0.013,0.0427 -0.0164,0.0537 -0.003,0.006 -0.007,0.0106 -0.008,0.0164 -0.0169,0.0676 0.0188,-0.0356 -0.004,0.0331 -0.004,0.0119 -0.006,0.006 -0.008,0.0206 -0.003,0.0243 -0.004,0.0498 -0.008,0.0744 -0.0103,0.0553 -0.009,0.0111 -0.0124,0.0744 0,0.018 0.003,0.0359 0,0.0537 -0.004,0.0567 -0.019,0.11298 -0.0249,0.1695 -0.003,0.0204 0,0.0416 0,0.062 0,0.0441 0,0.0882 0,0.1323 0,0.027 0.003,0.0557 0,0.0827 -0.003,0.018 -0.004,0.0361 -0.008,0.0537 -0.003,0.0143 -0.0106,0.0268 -0.0124,0.0413 -0.003,0.018 -0.003,0.0357 -0.004,0.0537 -0.003,0.0249 -0.0106,0.0494 -0.0124,0.0744 -0.003,0.0424 -0.003,0.1506 -0.0331,0.1819 -0.008,0.008 -0.0193,-0.0111 -0.029,-0.0164 -0.0172,-0.01 -0.0361,-0.0159 -0.0537,-0.0249 -0.0675,-0.0338 -0.0634,-0.0334 -0.12817,-0.0785 -0.0236,-0.0164 -0.0492,-0.0302 -0.0703,-0.0496 -0.0865,-0.0797 -0.13658,-0.16042 -0.19018,-0.26871 -0.0351,-0.0709 -0.0623,-0.14539 -0.0909,-0.2191 -0.0598,-0.1542 -0.11584,-0.29192 -0.14057,-0.45477 -0.007,-0.0436 -0.005,-0.0882 -0.004,-0.13229 0.003,-0.12279 0.004,-0.14221 0.0331,-0.25217 0.01,-0.0545 0.0354,-0.10404 0.0496,-0.15711 0.006,-0.0204 0.007,-0.0415 0.0124,-0.062 0.0196,-0.0786 0.0607,-0.17563 0.10335,-0.24392 0.0308,-0.0493 0.10916,-0.13133 0.16536,-0.15295 0.0268,-0.0103 0.0548,-0.0114 0.0827,-0.0164 0.007,0 0.0296,-0.009 0.0372,-0.004 0.0175,0.0116 0.0236,0.0304 0.0372,0.0455 0.0335,0.0365 0.0415,0.0124 0.0412,0.0678 z"
       id="path253" />
    <path
       style="fill:#64ff00;fill-opacity:1;stroke:#0000ff;stroke-width:0;stroke-dasharray:none;stroke-opacity:1"
       d="m 630.33671,518.85611 -0.39796,0.26332"
       id="path254" />
    <path
       style="fill:#64ff00;fill-opacity:1;stroke:#0000ff;stroke-width:0;stroke-dasharray:none;stroke-opacity:1"
       d="m 629.83649,518.72186 -0.14002,0.4808"
       id="path255" />
    <path
       style="fill:#64ff00;fill-opacity:1;stroke:#0000ff;stroke-width:0;stroke-dasharray:none;stroke-opacity:1"
       d="m 630.02657,518.54025 0.31014,0.44752"
       id="path256" />
    <path
       style="fill:#64ff00;fill-opacity:1;stroke:#0000ff;stroke-width:0;stroke-dasharray:none;stroke-opacity:1"
       d="m 630.4563,518.93832 c 0.003,0.0127 0.004,0.0257 0.008,0.0378 0.004,0.009 0.0114,0.0164 0.0164,0.0249 0.0164,0.0271 0.0274,0.0548 0.0413,0.0827 0,0.003 0.004,0.003 0.004,0.004 0.005,0.0262 0,0.0708 0,0.0992 0,0.0626 0,0.12449 -0.008,0.18605 -0.003,0.0257 0.006,0.10039 0,0.11989 -0.006,0.0172 -0.004,0.0352 -0.004,0.0537 0,0.0212 0.003,0.0452 0,0.0661 0,0.004 -0.003,0.008 -0.004,0.0124 -0.003,0.01 0.003,0.0193 0,0.0289 -0.0111,0.0663 -0.0164,0.13618 -0.0331,0.20257 -0.0111,0.0445 -0.0254,0.0876 -0.0372,0.13229 -0.003,0.005 -0.006,0.0388 -0.008,0.0455 -0.003,0.005 -0.007,0.008 -0.008,0.0124 -0.0101,0.0331 0,0.0199 -0.004,0.0455 3e-5,0.013 -0.007,0.0246 -0.008,0.0372 -0.003,0.0177 -0.003,0.036 -0.004,0.0538 -0.003,0.0249 -0.0106,0.0492 -0.0124,0.0744 0,0.01 0,0.0193 0,0.029 -0.003,0.0406 -0.0132,0.0802 -0.0206,0.11988 -0.0103,0.0551 0,0.0116 -0.004,0.0579 -0.003,0.0306 -0.0116,0.0607 -0.0164,0.0909 -0.003,0.01 -0.003,0.0193 -0.004,0.0289 -0.003,0.0111 -0.003,0.0222 -0.004,0.0331 -0.008,0.0499 -0.0206,0.099 -0.0289,0.14882 -0.007,0.0402 -0.018,0.0799 -0.0249,0.11989 -0.003,0.0137 -0.003,0.0277 -0.004,0.0413 -0.003,0.018 -0.0106,0.0354 -0.0124,0.0537 -0.003,0.0262 0,0.0524 0,0.0786 -0.003,0.0499 -0.004,0.0989 -0.004,0.14883"
       id="path257" />
    <path
       style="fill:#64ff00;fill-opacity:1;stroke:#0000ff;stroke-width:0;stroke-dasharray:none;stroke-opacity:1"
       d="m 630.24768,518.75467 c 0.0368,0.0254 0.0967,0.003 0.13864,0.023 0.008,0.004 0.0138,0.0109 0.0206,0.0164 0.0262,0.0214 0.0482,0.0456 0.0661,0.0744 0.003,0.003 0.0159,0.0274 0.0206,0.0331 0.004,0.005 0.01,0.007 0.0124,0.0124 0.003,0.004 -0.003,0.009 0,0.0124 0.0114,0.023 0.013,0.003 0.0206,0.0249 0.003,0.004 0,0.008 0,0.0124 0.003,0.01 0.01,0.0177 0.0164,0.0249 0,0 0.003,0 0.004,0 0.003,0.003 0.003,0.0145 0.004,0.0164 0,0 0.003,0 0.004,0 0.0111,0.0148 0.0127,0.0339 0.0206,0.0496 0.003,0.003 0.007,0.005 0.008,0.008 0.003,0.006 0.003,0.0143 0.004,0.0206 0.0127,0.0297 0.007,-0.0209 0.0124,0.0249 0.003,0.0109 -0.003,0.0222 0,0.0331 0,0.004 0.003,0.008 0.004,0.0124 0.005,0.0295 0,0.0653 0,0.0951 0,0.0191 0.004,0.0432 0,0.062 -0.003,0.0116 -0.006,0.0209 -0.008,0.0331 -0.003,0.0138 0.003,0.003 0,0.0206 -0.003,0.0135 -0.01,0.0279 -0.0124,0.0413 -0.003,0.0111 0.004,0.0265 0,0.0372 0,0 -0.004,-0.003 -0.004,0 -0.003,0.013 0.003,0.0284 0,0.0413 0,0.003 -0.003,0.005 -0.004,0.008 -0.003,0.008 0.003,0.0175 0,0.0249 -0.004,0.0117 -0.003,0.0167 -0.004,0.029 -0.004,0.0289 -0.01,0.0592 -0.0164,0.0868 -0.003,0.0124 0.006,0.0341 0,0.0455 0,0.003 -0.003,0.003 -0.004,0.004 -0.006,0.0193 0.003,0.0459 0,0.0661 -0.003,0.0177 -0.008,0.0369 -0.0124,0.0538 0,0.005 0.004,0.0254 0,0.0289 0,0 -0.004,0 -0.004,0 -0.003,0.007 0.003,0.0145 0,0.0206 0,0 -0.003,0 -0.004,0 -0.005,0.0106 0.003,0.0298 0,0.0413 0,0.003 -0.003,0.003 -0.004,0.004 -0.003,0.0101 -0.004,0.0198 -0.008,0.029 -0.003,0.006 0.003,0.018 0,0.0249 -0.003,0.0164 -0.007,0.0331 -0.008,0.0496 -0.005,0.0523 0,0.10848 0,0.16121 0,0.0625 -0.005,0.12861 0.004,0.19018 0.005,0.0353 0,0.0919 0,0.12816 0,0.006 -0.003,0.0312 0,0.0331 1.3e-4,1.3e-4 0.0109,0.003 0.0124,0.004 0.005,0.005 0,0.0323 0,0.0413 0,0.0689 0,0.13782 0,0.20672 0,0.0347 -0.003,0.0728 0,0.10747 0,0.006 0.004,0.0109 0.004,0.0164 0,0.0103 -0.005,0.0389 0,0.0496 0.0124,0.0249 0.004,0.0679 0,0.0951 -0.003,0.0108 0.003,0.0225 0,0.0331 -0.003,0.006 -0.006,0.0106 -0.008,0.0164 -0.007,0.0214 -0.009,0.0497 -0.0164,0.0703 -0.003,0.008 -0.01,0.0132 -0.0124,0.0206 -0.005,0.0114 -0.003,0.0388 -0.0164,0.0455 -0.0148,0.007 -0.0603,-0.003 -0.0744,-0.008 -0.0109,-0.005 -0.0225,-0.007 -0.0331,-0.0124 -0.0276,-0.0138 -0.0677,-0.11147 -0.0786,-0.13642 -0.0167,-0.0385 -0.0359,-0.0761 -0.0496,-0.11575 -0.007,-0.0214 -0.0103,-0.0443 -0.0164,-0.0661 -0.0295,-0.10313 -0.006,0.0106 -0.0331,-0.12816 -0.005,-0.0233 -0.008,-0.0469 -0.0124,-0.0703 -0.005,-0.0276 -0.0124,-0.0549 -0.0164,-0.0827 -0.004,-0.0274 -0.005,-0.0552 -0.008,-0.0827 -0.003,-0.029 -0.008,-0.0579 -0.0124,-0.0868 -0.0275,-0.17656 -0.0486,-0.35446 -0.0537,-0.53332 -0.003,-0.066 0,-0.1324 0,-0.19844 0,-0.0762 -0.003,-0.15695 0.0164,-0.23151 0.004,-0.0169 0.0116,-0.0329 0.0164,-0.0496 0.005,-0.0164 0.007,-0.0334 0.0124,-0.0496 0.009,-0.0281 0.0233,-0.0547 0.0331,-0.0827 0.0122,-0.0351 0.0193,-0.0731 0.0331,-0.10747 0.005,-0.0114 0.0116,-0.0217 0.0164,-0.0331 0.0169,-0.0393 0.0275,-0.0811 0.0454,-0.11988 0.008,-0.0175 0.0204,-0.0325 0.029,-0.0496 0.003,-0.008 0.0227,-0.0581 0.0289,-0.0703 0.005,-0.01 0.013,-0.0183 0.0164,-0.0289 0.003,-0.007 0,-0.0138 0,-0.0206"
       id="path258" />
    <path
       style="fill:#64ff00;fill-opacity:1;stroke:#0000ff;stroke-width:0;stroke-dasharray:none;stroke-opacity:1"
       d="m 630.33671,518.98777 c 0.0164,-0.01 0.0695,-0.0428 0.0951,-0.053 0.0212,-0.008 0.0945,0.008 0.1116,0.0249 0.003,0.003 0.003,0.01 0.008,0.0124 0.003,0 0.006,0 0.008,0 0.0172,0.009 -0.005,-2.7e-4 0.004,0.008 0.006,0.006 0.0206,0.01 0.0249,0.0164 0.003,0.003 -0.003,0.006 0,0.008 0.006,0.007 0.0159,0.009 0.0206,0.0164 0.0161,0.0243 0.008,0.13465 0.008,0.17364 0,0.0593 0,0.11851 0,0.17778 0,0.005 -0.004,0.0249 0,0.0289 0,0 0.004,0 0.004,0 0.003,0.008 0,0.0236 0,0.0331 0,0.0286 0.005,0.0864 0,0.11163 -0.005,0.0241 -0.004,0.008 -0.004,0.0249 0,0.0725 -0.005,0.14745 0.004,0.2191 0.005,0.0428 0,0.0966 0,0.14055 0,0.10062 0,0.20121 0,0.30181 0,0.0763 -0.004,0.1511 -0.004,0.22735 0,0.0236 -0.005,0.0703 0,0.091 0.0172,0.0688 0.008,0.17293 0.008,0.24804 0,0.0506 0,0.0984 -0.004,0.14883 -0.005,0.0843 0,0.18029 0,0.26459 0,0.006 0,0.0683 -0.004,0.0703 -0.004,0 -0.008,0 -0.0117,0 0.001,0.0167 0.003,0.0334 0.004,0.0501 0.003,0.0395 0,0.0802 0,0.11989 0,0.0239 0.004,0.0511 0,0.0744 -0.008,0.0504 -0.008,0.10145 -0.008,0.15296 0,0.0425 -8e-5,0.0831 -0.008,0.12403 -0.003,0.0129 0.004,0.029 0,0.0413 -6.1e-4,0.002 -0.004,0.002 -0.004,0.004 -0.004,0.0123 0.003,0.0289 0,0.0413 -0.001,0.004 -0.003,0.008 -0.004,0.0124 -0.002,0.009 0.002,0.0198 0,0.0289 -4.7e-4,0.002 -0.004,0.002 -0.004,0.004 -0.001,0.004 -0.003,0.0345 0,0.0372 0.004,0.004 0.009,0.005 0.0124,0.008 0.009,0.009 0.0331,0.0373 0.0372,0.0496 0.006,0.0165 -1.2e-4,0.046 -0.004,0.062 -0.002,0.01 0,0.023 0,0.0331 0,0.018 0.001,0.0321 0.004,0.0496 0.004,0.0268 -0.004,0.0557 0,0.0827 0.005,0.035 0.004,-0.005 0.004,0.0207 0,0.0475 0.005,0.0976 0,0.1447 -5.9e-4,0.006 -0.005,0.0258 -0.008,0.0331 -8.8e-4,0.002 -0.004,0.002 -0.004,0.004 -0.001,0.005 3.9e-4,0.0203 -0.004,0.0248 -0.002,0.002 -0.006,-0.001 -0.008,0 -0.002,8.7e-4 -0.002,0.003 -0.004,0.004 -0.004,0.002 -0.0159,0 -0.0207,0 -0.01,0 -0.0197,0.003 -0.0289,0 -0.0107,-0.003 -0.0195,-0.0106 -0.0289,-0.0165 -0.0901,-0.0563 -0.14624,-0.14064 -0.19844,-0.23151 -0.0187,-0.0326 -0.0403,-0.0641 -0.0537,-0.0992 -0.006,-0.0149 -0.0225,-0.0859 -0.004,-0.0992 0.0246,-0.0179 0.0523,-0.004 0.0768,-0.004"
       id="path259" />
    <path
       style="fill:#64ff00;fill-opacity:1;stroke:#0000ff;stroke-width:0;stroke-dasharray:none;stroke-opacity:1"
       d="m 630.33671,518.59574 0.2722,0.42513"
       id="path260" />
    <path
       style="fill:#64ff00;fill-opacity:1;stroke:#0000ff;stroke-width:0;stroke-dasharray:none;stroke-opacity:1"
       d="m 629.97063,519.34146 0.3668,-0.4655"
       id="path261" />
    <path
       style="fill:#64ff00;fill-opacity:1;stroke:#0000ff;stroke-width:0;stroke-dasharray:none;stroke-opacity:1"
       d="m 629.83649,518.72186 c 0.18756,-0.0885 0.11761,-0.0741 0.35139,-0.093 0.018,-0.003 0.0855,-0.006 0.11989,0.004 0.0279,0.008 0.0423,0.034 0.062,0.0537 0.0183,0.0183 0.0435,0.0312 0.062,0.0496 0.0481,0.0602 -0.0153,-0.014 0.0372,0.0331 0.008,0.007 0.0127,0.0177 0.0206,0.0249 0.006,0.005 0.0143,0.007 0.0206,0.0124 0.007,0.005 0.038,0.0396 0.0414,0.0496 0.005,0.0159 -0.0111,0.003 0.008,0.0206 0,0 0.003,0 0.004,0 0.003,0.003 0.007,0.003 0.008,0.004 0,0.009 0,0.008 0.004,0.0164 0.0193,0.029 0.0206,0.0563 0.0206,0.0909 0,0.0119 -0.005,0.0391 0,0.0496 0,0 0.003,0 0.004,0 0.003,0.003 -0.003,0.0103 0,0.0124 0,0 0.003,0 0.004,0 0.003,0.003 0.003,0.0175 0.004,0.0206 0.004,0.0111 0.007,0.007 0.008,0.0206 0,0.008 -0.004,0.0175 0,0.0249 0,0.003 0.003,0.003 0.004,0.004 0.006,0.0119 -0.003,0.10515 -0.004,0.11991 0,0.007 0.003,0.0138 0,0.0206 0,0.003 -0.004,0.003 -0.004,0.004 -0.003,0.009 0.003,0.0196 0,0.029 0,0.004 -0.003,0.008 -0.004,0.0124 -0.003,0.0148 0,0.0342 0,0.0496 0,0.0372 0,0.0744 0,0.1116 0,0.007 1.5e-4,0.0495 -0.004,0.0538 0,0 -0.004,-0.003 -0.004,0 -0.005,0.0148 0,0.12882 0,0.15295 0,0.0143 -0.005,0.0478 0,0.0579 0.004,0.008 0.0103,0.008 0.0124,0.0164 0.006,0.0249 -0.003,0.0636 0,0.091 0.003,0.0214 0.0103,0.10149 0.004,0.11988 -0.006,0.0164 -0.0143,0.0322 -0.0164,0.0496 -0.003,0.0238 0,0.0505 0,0.0744 0,0.0552 -0.003,0.1108 0.004,0.16536 0.006,0.0509 -0.003,0.11475 -0.008,0.16536 -0.005,0.0373 0,0.0781 0,0.11576 0,0.0584 -0.005,0.1197 0,0.17775 0,0.007 0.003,0.0138 0.004,0.0206 0.003,0.0146 0,0.0308 0,0.0455 0,0.0345 0,0.0689 0,0.10337 0,0.0228 0.003,0.0477 0,0.0703 -0.003,0.0235 -0.01,0.0466 -0.0124,0.0703 -0.003,0.0135 0.003,0.0278 0,0.0413 -0.003,0.018 -0.006,0.0356 -0.008,0.0537 -0.005,0.0419 0,0.10538 0,0.14883 0,0.0182 0.003,0.0399 0,0.0579 0,0.003 -0.004,0.005 -0.004,0.008 0,0.007 -0.003,0.0606 0,0.0661 0.0103,0.0196 0.0217,0.0386 0.0327,0.0578"
       id="path262" />
    <path
       style="fill:#64ff00;fill-opacity:1;stroke:#0000ff;stroke-width:0;stroke-dasharray:none;stroke-opacity:1"
       d="m 630.2721,522.32882 0.3587,-0.15367"
       id="path263" />
    <path
       style="fill:#64ff00;fill-opacity:1;stroke:#0000ff;stroke-width:0;stroke-dasharray:none;stroke-opacity:1"
       d="m 630.63479,522.42325 -0.018,-1.14086 -0.92913,-0.0603"
       id="path264" />
    <path
       style="fill:#64ff00;fill-opacity:1;stroke:#0000ff;stroke-width:0;stroke-dasharray:none;stroke-opacity:1"
       d="m 630.6222,522.59756 -1.2382,-3.48475"
       id="path265" />
    <rect
       style="fill:#64ff00;fill-rule:evenodd;stroke-width:0.264583;fill-opacity:1"
       id="rect266"
       width="3.2470634"
       height="5.6823535"
       x="623.52368"
       y="516.64856" />
    <path
       style="fill:#0000ff;fill-rule:evenodd;stroke-width:0.264583"
       id="rect267"
       width="61.91901"
       height="30.121269"
       x="1128.7058"
       y="559.97534"
       inkscape:path-effect="#path-effect275"
       sodipodi:type="rect"
       d="m 1128.7058,559.97534 h 61.919 v 30.12127 h -50.0492 a 11.869827,11.869827 45 0 1 -11.8698,-11.86983 z"
       transform="translate(2.6702881e-5,1.9923091)" />
    <path
       style="fill:#0000ff;fill-rule:evenodd;stroke-width:0.264583"
       id="rect268"
       width="61.91901"
       height="30.121269"
       x="468.50476"
       y="554.59448"
       inkscape:path-effect="#path-effect272"
       sodipodi:type="rect"
       d="m 468.50476,554.59448 h 61.91901 v 19.62633 a 10.49494,10.49494 135 0 1 -10.49494,10.49494 h -51.42407 z" />
    <rect
       style="fill:#0000ff;fill-rule:evenodd;stroke-width:0.134402"
       id="rect269"
       width="214.36478"
       height="2.2450647"
       x="976.26007"
       y="557.73029" />
    <rect
       style="fill:#0000ff;fill-rule:evenodd;stroke-width:0.100671"
       id="rect270"
       width="2.6443479"
       height="19.166456"
       x="976.26007"
       y="540.8089" />
    <rect
       style="fill:#0000ff;fill-rule:evenodd;stroke-width:0.105066"
       id="rect271"
       width="130.9975"
       height="2.2450647"
       x="468.50476"
       y="548.50031" />
    <rect
       style="fill:#0000ff;fill-rule:evenodd;stroke-width:0.0862282"
       id="rect272"
       width="2.6443479"
       height="14.061495"
       x="596.85791"
       y="536.6839" />
  </g>
</svg>
