<?xml version="1.0" encoding="UTF-8" standalone="no"?>
<!-- Created with Inkscape (http://www.inkscape.org/) -->

<svg
   width="255mm"
   height="255mm"
   viewBox="0 0 255 255"
   version="1.1"
   id="svg1"
   inkscape:version="1.4.2 (f4327f4, 2025-05-13)"
   sodipodi:docname="Warning.svg"
   inkscape:export-filename="Warning.png"
   inkscape:export-xdpi="25.4"
   inkscape:export-ydpi="25.4"
   xmlns:inkscape="http://www.inkscape.org/namespaces/inkscape"
   xmlns:sodipodi="http://sodipodi.sourceforge.net/DTD/sodipodi-0.dtd"
   xmlns="http://www.w3.org/2000/svg"
   xmlns:svg="http://www.w3.org/2000/svg">
  <sodipodi:namedview
     id="namedview1"
     pagecolor="#ffffff"
     bordercolor="#000000"
     borderopacity="0"
     inkscape:showpageshadow="2"
     inkscape:pageopacity="0.0"
     inkscape:pagecheckerboard="0"
     inkscape:deskcolor="#d1d1d1"
     inkscape:document-units="mm"
     inkscape:zoom="0.34431467"
     inkscape:cx="227.98912"
     inkscape:cy="733.3408"
     inkscape:window-width="1920"
     inkscape:window-height="991"
     inkscape:window-x="-9"
     inkscape:window-y="-9"
     inkscape:window-maximized="1"
     inkscape:current-layer="layer1" />
  <defs
     id="defs1" />
  <g
     inkscape:label="Layer 1"
     inkscape:groupmode="layer"
     id="layer1">
    <path
       style="fill:#000000;fill-opacity:1;fill-rule:evenodd;stroke:#0000ff;stroke-width:0"
       d="M 0,255 127.5,1.5e-6 255,255 Z"
       id="path1" />
    <path
       style="fill:#ffff00;fill-opacity:1;fill-rule:evenodd;stroke:#0000ff;stroke-width:0"
       d="M 35.263731,241.56451 219.73627,241.02115 127.98835,36.715776 Z"
       id="path2" />
    <path
       style="fill:#ffff00;fill-opacity:1;fill-rule:evenodd;stroke:#0000ff;stroke-width:0"
       d="m 117.18629,131.01811 c -0.12808,1.92109 -0.38422,3.83791 -0.38422,5.76326 0,9.24195 0.56133,2.32697 0.76843,9.98965 0.09,3.32867 -0.11885,6.66189 0,9.98965 0.25635,7.17776 0.73089,14.34622 1.15265,21.51617 0.0606,1.03077 0.31554,2.04347 0.38422,3.07374 0.0596,0.89452 -0.21743,1.81978 0,2.68952 0.0695,0.27783 0.51229,0.25615 0.76844,0.38422"
       id="path3" />
    <circle
       id="path4"
       style="fill:#000000;stroke:#0000ff;stroke-width:0.264583"
       cx="127.17593"
       cy="82.990944"
       r="0" />
    <circle
       id="path6"
       style="fill:#000000;stroke:#0000ff;stroke-width:0.264583"
       cx="130.24966"
       cy="79.532982"
       r="0" />
    <path
       style="fill:#000000;fill-opacity:1;fill-rule:evenodd;stroke:#0000ff;stroke-width:0"
       d="m 116.80207,90.67529 22.66882,-0.768435 -2.68952,94.517465 -17.674,-0.38422 z"
       id="path8" />
    <path
       style="fill:#000000;fill-opacity:1;fill-rule:evenodd;stroke:#0000ff;stroke-width:0"
       d="m 119.87581,213.13506 h 15.82969 l 0.27168,16.70849 -16.10137,-0.13584 z"
       id="path9" />
  </g>
</svg>
